<?xml version="1.0" encoding="UTF-8"?>
<svg xmlns="http://www.w3.org/2000/svg" xmlns:xlink="http://www.w3.org/1999/xlink" width="32px" height="32px" viewBox="0 0 32 32" version="1.1">
<g id="surface1">
<path style=" stroke:none;fill-rule:evenodd;fill:rgb(96.078432%,45.09804%,33.725491%);fill-opacity:1;" d="M 19.839844 12.089844 C 19.839844 12.78125 19.855469 12.921875 19.941406 12.953125 C 19.996094 12.972656 20.054688 12.992188 20.070312 12.992188 C 20.082031 12.992188 20.097656 12.789062 20.097656 12.542969 C 20.097656 12.140625 20.109375 12.097656 20.222656 12.097656 C 20.339844 12.097656 20.351562 12.140625 20.351562 12.539062 C 20.351562 12.835938 20.324219 12.988281 20.273438 13.007812 C 20.226562 13.023438 20.269531 13.050781 20.367188 13.070312 L 20.542969 13.101562 L 20.542969 11.265625 L 19.839844 11.265625 L 19.839844 12.089844 M 21.183594 11.550781 C 21.183594 11.792969 21.203125 11.839844 21.308594 11.839844 C 21.375 11.839844 21.449219 11.890625 21.46875 11.953125 C 21.511719 12.09375 21.980469 12.246094 22.128906 12.167969 C 22.367188 12.050781 22.398438 12.144531 22.398438 12.898438 C 22.398438 13.359375 22.425781 13.640625 22.46875 13.667969 C 22.519531 13.699219 22.535156 13.390625 22.523438 12.566406 C 22.511719 11.9375 22.492188 11.386719 22.476562 11.34375 C 22.457031 11.289062 22.265625 11.265625 21.816406 11.265625 L 21.183594 11.265625 L 21.183594 11.550781 M 20.097656 11.585938 C 20.097656 11.796875 20.117188 11.839844 20.222656 11.839844 C 20.332031 11.839844 20.351562 11.796875 20.351562 11.585938 C 20.351562 11.371094 20.332031 11.328125 20.222656 11.328125 C 20.117188 11.328125 20.097656 11.371094 20.097656 11.585938 M 21.484375 11.371094 C 21.460938 11.394531 21.441406 11.507812 21.441406 11.625 C 21.441406 11.8125 21.460938 11.839844 21.601562 11.839844 C 21.742188 11.839844 21.761719 11.8125 21.761719 11.585938 C 21.761719 11.378906 21.738281 11.328125 21.644531 11.328125 C 21.578125 11.328125 21.507812 11.347656 21.484375 11.371094 M 22.078125 11.578125 C 22.078125 11.816406 22.09375 11.839844 22.242188 11.839844 C 22.394531 11.839844 22.40625 11.820312 22.386719 11.601562 C 22.371094 11.40625 22.339844 11.355469 22.222656 11.339844 C 22.09375 11.320312 22.078125 11.347656 22.078125 11.578125 "/>
<path style=" stroke:none;fill-rule:evenodd;fill:rgb(22.352941%,14.901961%,20%);fill-opacity:1;" d="M 15.097656 3.988281 C 14.507812 4.1875 14.144531 4.4375 14.144531 4.644531 C 14.144531 4.898438 14.304688 4.898438 14.800781 4.644531 C 15.054688 4.515625 15.4375 4.386719 15.648438 4.351562 C 16.320312 4.246094 17.085938 4.445312 17.613281 4.867188 C 17.90625 5.101562 18.09375 5.113281 18.148438 4.894531 C 18.199219 4.699219 18.132812 4.613281 17.703125 4.328125 C 16.949219 3.828125 15.949219 3.695312 15.097656 3.988281 M 15.488281 4.699219 C 14.808594 4.886719 14.265625 5.296875 13.90625 5.898438 C 13.25 6.992188 13.417969 8.371094 14.320312 9.351562 C 14.507812 9.550781 14.945312 10.1875 15.292969 10.761719 C 15.640625 11.335938 15.972656 11.835938 16.03125 11.871094 C 16.175781 11.960938 16.261719 11.84375 16.921875 10.695312 C 17.261719 10.101562 17.589844 9.613281 17.796875 9.402344 C 18.53125 8.648438 18.804688 7.535156 18.503906 6.542969 C 18.09375 5.191406 16.726562 4.355469 15.488281 4.699219 M 13.488281 5.167969 C 13.140625 5.53125 12.804688 6.386719 12.800781 6.921875 C 12.800781 7.105469 12.828125 7.167969 12.929688 7.199219 C 13.109375 7.257812 13.246094 7.128906 13.246094 6.902344 C 13.246094 6.519531 13.53125 5.863281 13.917969 5.335938 C 13.996094 5.234375 13.890625 5.035156 13.75 5.007812 C 13.699219 4.996094 13.582031 5.066406 13.488281 5.167969 M 15.316406 5.351562 C 14.960938 5.480469 14.53125 5.867188 14.324219 6.25 C 13.546875 7.679688 14.507812 9.472656 16.050781 9.472656 C 16.535156 9.472656 16.824219 9.382812 17.195312 9.128906 C 18.273438 8.386719 18.394531 6.871094 17.460938 5.851562 C 17.066406 5.417969 16.664062 5.25 16.0625 5.253906 C 15.800781 5.257812 15.464844 5.300781 15.316406 5.351562 M 18.414062 5.289062 C 18.332031 5.367188 18.367188 5.59375 18.484375 5.792969 C 18.660156 6.074219 18.878906 6.699219 18.878906 6.902344 C 18.878906 7.199219 19.1875 7.359375 19.3125 7.128906 C 19.433594 6.917969 19.164062 5.945312 18.859375 5.492188 C 18.722656 5.289062 18.511719 5.191406 18.414062 5.289062 M 15.457031 5.910156 C 14.824219 6.214844 14.507812 6.722656 14.515625 7.402344 C 14.519531 7.90625 14.683594 8.277344 15.035156 8.597656 C 15.382812 8.910156 15.65625 9.023438 16.0625 9.023438 C 16.917969 9.023438 17.597656 8.300781 17.597656 7.390625 C 17.597656 6.515625 16.992188 5.851562 16.132812 5.78125 C 15.847656 5.757812 15.714844 5.785156 15.457031 5.910156 M 15.65625 6.238281 C 14.992188 6.476562 14.667969 7.253906 14.96875 7.902344 C 15.507812 9.066406 17.082031 8.808594 17.257812 7.527344 C 17.292969 7.261719 17.285156 7.230469 17.167969 7.230469 C 17.066406 7.230469 17.035156 7.285156 17.003906 7.5 C 16.964844 7.808594 16.8125 8.035156 16.511719 8.238281 C 16.085938 8.53125 15.507812 8.359375 15.25 7.871094 C 15.007812 7.414062 15.09375 6.964844 15.480469 6.640625 C 15.753906 6.410156 16.066406 6.359375 16.40625 6.488281 C 16.738281 6.617188 16.769531 6.617188 16.769531 6.492188 C 16.769531 6.378906 16.296875 6.144531 16.0625 6.148438 C 15.976562 6.148438 15.792969 6.1875 15.65625 6.238281 M 15.675781 6.972656 C 15.367188 7.277344 15.433594 7.710938 15.816406 7.910156 C 16.167969 8.089844 16.398438 7.992188 16.800781 7.488281 C 16.992188 7.246094 17.152344 7.003906 17.152344 6.949219 C 17.152344 6.730469 17.015625 6.808594 16.675781 7.230469 C 16.28125 7.722656 16.074219 7.828125 15.871094 7.644531 C 15.582031 7.382812 15.789062 7.019531 16.210938 7.050781 C 16.511719 7.074219 16.589844 6.96875 16.351562 6.859375 C 16.082031 6.734375 15.875 6.769531 15.675781 6.972656 M 12.867188 7.644531 C 12.699219 7.847656 13.019531 8.890625 13.410156 9.425781 C 13.667969 9.773438 13.78125 9.84375 13.921875 9.726562 C 14.0625 9.609375 14.039062 9.503906 13.796875 9.164062 C 13.53125 8.796875 13.457031 8.621094 13.3125 8.03125 C 13.226562 7.679688 13.175781 7.578125 13.078125 7.566406 C 13.007812 7.554688 12.910156 7.589844 12.867188 7.644531 M 18.960938 7.632812 C 18.925781 7.675781 18.875 7.855469 18.851562 8.03125 C 18.792969 8.445312 18.507812 9.035156 18.179688 9.429688 C 18.035156 9.601562 17.921875 9.761719 17.921875 9.785156 C 17.921875 9.867188 18.070312 9.984375 18.175781 9.984375 C 18.300781 9.984375 18.617188 9.660156 18.839844 9.296875 C 19.042969 8.972656 19.328125 8.144531 19.328125 7.890625 C 19.328125 7.601562 19.105469 7.449219 18.960938 7.632812 M 20.609375 8.839844 C 20.609375 9.355469 20.609375 9.359375 20.453125 9.320312 C 20.28125 9.277344 20.230469 9.328125 20.128906 9.632812 C 20.066406 9.8125 20.042969 9.824219 19.742188 9.824219 L 19.425781 9.824219 L 19.40625 10.832031 C 19.390625 11.683594 19.375 11.839844 19.292969 11.839844 C 19.238281 11.839844 18.886719 11.785156 18.507812 11.714844 C 18.132812 11.644531 17.71875 11.570312 17.585938 11.550781 C 17.359375 11.515625 17.351562 11.507812 17.421875 11.355469 C 17.460938 11.269531 17.472656 11.179688 17.449219 11.15625 C 17.394531 11.101562 17.425781 11.0625 16.9375 11.878906 C 16.441406 12.703125 16.335938 12.816406 16.085938 12.789062 C 15.929688 12.769531 15.828125 12.644531 15.359375 11.910156 C 15.054688 11.433594 14.773438 11.035156 14.730469 11.023438 C 14.59375 10.976562 14.453125 11.144531 14.492188 11.304688 C 14.535156 11.476562 14.570312 11.46875 13.488281 11.613281 C 13.074219 11.667969 12.652344 11.730469 12.546875 11.753906 L 12.359375 11.789062 L 12.320312 11.039062 L 11.886719 11.019531 L 11.457031 11.003906 L 11.457031 10.683594 C 11.457031 10.453125 11.429688 10.367188 11.363281 10.367188 C 11.3125 10.367188 11.253906 10.277344 11.230469 10.160156 C 11.164062 9.84375 11.003906 9.535156 10.90625 9.535156 C 10.855469 9.535156 10.816406 9.46875 10.816406 9.382812 C 10.816406 9.160156 10.753906 9.023438 10.648438 9.023438 C 10.589844 9.023438 10.558594 9.097656 10.558594 9.226562 C 10.558594 9.363281 10.5 9.492188 10.390625 9.609375 C 10.296875 9.707031 10.1875 9.925781 10.144531 10.09375 C 10.046875 10.480469 9.855469 10.558594 9.855469 10.210938 C 9.855469 9.992188 9.847656 9.984375 9.625 9.984375 C 9.496094 9.984375 9.28125 10.015625 9.144531 10.058594 L 8.894531 10.132812 L 8.894531 12.398438 L 7.984375 12.695312 C 7.085938 12.988281 6.113281 13.378906 6 13.496094 C 5.824219 13.671875 5.691406 15.035156 5.765625 15.910156 C 5.9375 17.886719 6.902344 20.003906 8.8125 22.597656 L 9.402344 23.402344 L 9.773438 23.226562 C 10.867188 22.703125 13.054688 22.5 14.238281 22.8125 C 14.808594 22.964844 15.410156 23.277344 15.726562 23.59375 C 15.878906 23.746094 16.019531 23.871094 16.042969 23.871094 C 16.0625 23.871094 16.203125 23.757812 16.355469 23.621094 C 16.726562 23.277344 17.300781 23 17.96875 22.839844 C 18.457031 22.722656 18.65625 22.710938 19.550781 22.738281 C 20.703125 22.78125 21.414062 22.921875 22.042969 23.234375 C 22.25 23.339844 22.429688 23.425781 22.4375 23.425781 C 22.496094 23.425781 23.355469 22.253906 23.804688 21.566406 C 25.289062 19.296875 26.035156 17.1875 26.226562 14.710938 L 26.277344 14.089844 L 25.859375 13.867188 C 25.328125 13.585938 24.359375 13.175781 23.761719 12.988281 L 23.296875 12.839844 L 23.296875 10.113281 L 21.910156 10.113281 L 21.832031 9.683594 C 21.789062 9.449219 21.738281 9.234375 21.722656 9.207031 C 21.707031 9.179688 21.613281 9.183594 21.519531 9.214844 C 21.421875 9.246094 21.25 9.285156 21.136719 9.304688 L 20.929688 9.339844 L 20.929688 8.832031 C 20.929688 8.328125 20.925781 8.320312 20.769531 8.320312 C 20.609375 8.320312 20.609375 8.328125 20.609375 8.839844 M 10.496094 9.824219 C 10.425781 9.90625 10.449219 9.921875 10.648438 9.921875 C 10.886719 9.921875 10.957031 9.835938 10.777344 9.765625 C 10.628906 9.710938 10.582031 9.71875 10.496094 9.824219 M 20.414062 9.792969 C 20.414062 9.828125 20.652344 9.855469 20.992188 9.855469 C 21.332031 9.855469 21.566406 9.828125 21.566406 9.792969 C 21.566406 9.753906 21.332031 9.726562 20.992188 9.726562 C 20.652344 9.726562 20.414062 9.753906 20.414062 9.792969 M 9.410156 11.449219 C 9.402344 12.675781 9.40625 12.722656 9.535156 12.753906 C 9.660156 12.789062 9.664062 12.765625 9.664062 11.480469 C 9.664062 10.234375 9.660156 10.175781 9.539062 10.175781 C 9.421875 10.175781 9.417969 10.238281 9.410156 11.449219 M 10.367188 10.351562 C 10.367188 10.378906 10.511719 10.398438 10.6875 10.398438 C 10.863281 10.398438 11.007812 10.378906 11.007812 10.351562 C 11.007812 10.324219 10.863281 10.304688 10.6875 10.304688 C 10.511719 10.304688 10.367188 10.324219 10.367188 10.351562 M 9.855469 10.816406 L 9.855469 11.007812 L 11.328125 11.007812 L 11.328125 10.625 L 9.855469 10.625 L 9.855469 10.816406 M 19.839844 10.816406 C 19.839844 10.964844 19.867188 11.007812 19.96875 11.007812 C 20.0625 11.007812 20.097656 10.964844 20.097656 10.847656 C 20.097656 10.648438 20.269531 10.632812 20.300781 10.832031 C 20.3125 10.910156 20.371094 10.984375 20.433594 10.996094 C 20.519531 11.011719 20.542969 10.972656 20.542969 10.820312 C 20.542969 10.625 20.542969 10.625 20.191406 10.625 C 19.84375 10.625 19.839844 10.625 19.839844 10.816406 M 20.785156 10.734375 C 20.746094 10.890625 20.792969 11.007812 20.902344 11.007812 C 20.960938 11.007812 20.992188 10.9375 20.992188 10.816406 C 20.992188 10.605469 20.835938 10.542969 20.785156 10.734375 M 21.132812 10.800781 C 21.148438 10.941406 21.183594 10.976562 21.3125 10.976562 C 21.429688 10.976562 21.476562 10.9375 21.492188 10.832031 C 21.523438 10.621094 21.761719 10.636719 21.761719 10.847656 C 21.761719 10.976562 21.792969 11.007812 21.921875 11.007812 C 22.046875 11.007812 22.078125 10.976562 22.078125 10.847656 C 22.078125 10.730469 22.113281 10.6875 22.207031 10.6875 C 22.300781 10.6875 22.335938 10.730469 22.335938 10.847656 C 22.335938 10.949219 22.371094 11.007812 22.433594 11.007812 C 22.496094 11.007812 22.527344 10.945312 22.527344 10.816406 L 22.527344 10.625 L 21.113281 10.625 L 21.132812 10.800781 M 9.855469 12.121094 C 9.855469 12.988281 9.863281 13.042969 9.984375 13.074219 C 10.097656 13.105469 10.113281 13.078125 10.113281 12.796875 C 10.113281 12.601562 10.148438 12.453125 10.210938 12.386719 C 10.304688 12.296875 10.304688 12.289062 10.210938 12.289062 C 10.152344 12.289062 10.113281 12.234375 10.113281 12.15625 C 10.113281 12.035156 10.144531 12.027344 10.542969 12.046875 C 10.871094 12.058594 10.976562 12.085938 10.976562 12.15625 C 10.976562 12.207031 10.90625 12.265625 10.824219 12.285156 C 10.6875 12.316406 10.683594 12.332031 10.769531 12.40625 C 10.828125 12.453125 10.890625 12.574219 10.914062 12.675781 C 10.945312 12.832031 10.988281 12.863281 11.140625 12.863281 L 11.328125 12.863281 L 11.328125 11.199219 L 9.855469 11.199219 L 9.855469 12.121094 M 11.519531 12.03125 C 11.519531 12.730469 11.535156 12.863281 11.617188 12.863281 C 11.679688 12.863281 11.710938 12.800781 11.710938 12.679688 C 11.710938 12.53125 11.75 12.484375 11.921875 12.425781 L 12.128906 12.355469 L 11.921875 12.390625 L 11.710938 12.425781 L 11.710938 11.8125 C 11.710938 11.3125 11.695312 11.199219 11.617188 11.199219 C 11.535156 11.199219 11.519531 11.335938 11.519531 12.03125 M 19.839844 12.089844 L 19.839844 12.976562 L 20.023438 13.011719 C 20.125 13.035156 20.285156 13.070312 20.375 13.09375 L 20.542969 13.132812 L 20.542969 11.199219 L 19.839844 11.199219 L 19.839844 12.089844 M 20.769531 11.324219 C 20.726562 11.464844 20.730469 12.964844 20.777344 13.136719 C 20.796875 13.199219 20.851562 13.246094 20.898438 13.246094 C 20.976562 13.246094 20.992188 13.070312 20.992188 12.222656 C 20.992188 11.378906 20.976562 11.199219 20.898438 11.199219 C 20.851562 11.199219 20.792969 11.253906 20.769531 11.324219 M 21.132812 12.265625 L 21.152344 13.328125 L 21.824219 13.542969 C 22.195312 13.660156 22.503906 13.757812 22.511719 13.757812 C 22.519531 13.757812 22.527344 13.183594 22.527344 12.480469 L 22.527344 11.199219 L 21.117188 11.199219 L 21.132812 12.265625 M 20.097656 11.585938 C 20.097656 11.734375 20.125 11.777344 20.222656 11.777344 C 20.324219 11.777344 20.351562 11.734375 20.351562 11.585938 C 20.351562 11.433594 20.324219 11.390625 20.222656 11.390625 C 20.125 11.390625 20.097656 11.433594 20.097656 11.585938 M 21.503906 11.585938 C 21.503906 11.734375 21.53125 11.777344 21.632812 11.777344 C 21.730469 11.777344 21.761719 11.734375 21.761719 11.585938 C 21.761719 11.433594 21.730469 11.390625 21.632812 11.390625 C 21.53125 11.390625 21.503906 11.433594 21.503906 11.585938 M 22.078125 11.585938 C 22.078125 11.734375 22.109375 11.777344 22.207031 11.777344 C 22.308594 11.777344 22.335938 11.734375 22.335938 11.585938 C 22.335938 11.433594 22.308594 11.390625 22.207031 11.390625 C 22.109375 11.390625 22.078125 11.433594 22.078125 11.585938 M 10.125 11.566406 C 10.160156 11.769531 11.007812 11.75 11.007812 11.550781 C 11.007812 11.476562 10.910156 11.457031 10.554688 11.457031 C 10.160156 11.457031 10.105469 11.46875 10.125 11.566406 M 20.097656 12.546875 C 20.097656 12.882812 20.109375 12.933594 20.207031 12.917969 C 20.296875 12.898438 20.324219 12.816406 20.339844 12.527344 C 20.355469 12.195312 20.347656 12.160156 20.226562 12.160156 C 20.109375 12.160156 20.097656 12.199219 20.097656 12.546875 M 21.503906 12.609375 C 21.503906 13.011719 21.515625 13.054688 21.632812 13.054688 C 21.746094 13.054688 21.761719 13.011719 21.761719 12.609375 C 21.761719 12.203125 21.746094 12.160156 21.632812 12.160156 C 21.515625 12.160156 21.503906 12.203125 21.503906 12.609375 M 22.105469 12.261719 C 22.125 12.316406 22.144531 12.574219 22.144531 12.835938 C 22.144531 13.214844 22.164062 13.3125 22.238281 13.3125 C 22.316406 13.3125 22.335938 13.207031 22.335938 12.734375 C 22.335938 12.191406 22.328125 12.160156 22.199219 12.160156 C 22.105469 12.160156 22.078125 12.1875 22.105469 12.261719 M 14.078125 12.332031 C 13.675781 12.382812 13.320312 12.449219 13.289062 12.476562 C 13.261719 12.503906 13.425781 12.796875 13.652344 13.128906 C 13.878906 13.457031 14.265625 14.058594 14.511719 14.464844 C 14.753906 14.867188 15.085938 15.402344 15.246094 15.648438 C 15.402344 15.894531 15.71875 16.457031 15.941406 16.894531 C 16.3125 17.621094 16.351562 17.738281 16.375 18.152344 C 16.402344 18.710938 16.3125 19.007812 16.015625 19.335938 C 15.753906 19.625 15.042969 20.082031 14.496094 20.308594 C 13.96875 20.527344 12.957031 20.734375 12.214844 20.78125 C 11.132812 20.847656 10.433594 20.625 9.730469 19.988281 C 9.246094 19.546875 8.589844 18.738281 8.429688 18.375 C 8.339844 18.167969 8.292969 18.117188 8.25 18.183594 C 8.070312 18.46875 8.277344 18.996094 8.90625 19.847656 C 9.367188 20.480469 9.957031 20.949219 10.984375 21.519531 L 11.507812 21.808594 L 11.542969 21.628906 C 11.5625 21.527344 11.636719 21.414062 11.707031 21.378906 C 11.78125 21.339844 12.207031 21.265625 12.65625 21.214844 C 14.273438 21.027344 15.332031 20.613281 16.125 19.863281 C 16.929688 19.105469 17.15625 18.320312 16.828125 17.441406 C 16.664062 17.007812 15.273438 14.679688 14.503906 13.558594 C 13.988281 12.796875 13.84375 12.5 14.03125 12.558594 C 14.226562 12.621094 16.257812 15.792969 16.855469 16.972656 C 17.125 17.503906 17.175781 17.65625 17.199219 18.058594 C 17.25 18.855469 16.875 19.613281 16.160156 20.160156 C 16 20.28125 15.605469 20.730469 15.285156 21.152344 C 14.964844 21.574219 14.675781 21.953125 14.644531 21.992188 C 14.605469 22.046875 14.6875 22.101562 14.925781 22.179688 C 15.363281 22.320312 15.738281 22.507812 15.914062 22.671875 L 16.054688 22.796875 L 16.25 22.660156 C 16.535156 22.457031 17.269531 22.171875 17.835938 22.039062 C 18.382812 21.914062 19.890625 21.878906 20.691406 21.96875 L 21.125 22.019531 L 21.480469 21.683594 C 21.953125 21.238281 21.980469 21.175781 21.8125 20.960938 C 21.738281 20.863281 21.246094 20.417969 20.722656 19.964844 L 19.765625 19.144531 L 19.472656 19.269531 C 19.3125 19.339844 18.921875 19.46875 18.597656 19.558594 C 17.984375 19.730469 17.734375 19.898438 17.597656 20.230469 C 17.519531 20.417969 17.445312 20.460938 17.382812 20.363281 C 17.335938 20.285156 17.578125 19.816406 17.753906 19.652344 C 17.839844 19.570312 18.183594 19.429688 18.558594 19.324219 C 18.917969 19.21875 19.320312 19.078125 19.457031 19.007812 C 19.59375 18.9375 19.734375 18.878906 19.769531 18.878906 C 19.902344 18.878906 22.0625 20.792969 22.140625 20.980469 C 22.238281 21.21875 22.195312 21.304688 21.765625 21.726562 C 21.425781 22.058594 21.378906 22.144531 21.535156 22.144531 C 21.585938 22.144531 21.765625 22.191406 21.933594 22.246094 L 22.238281 22.351562 L 22.417969 22.136719 C 22.769531 21.722656 23.558594 20.476562 23.96875 19.695312 C 24.410156 18.851562 24.820312 17.84375 25.023438 17.117188 C 25.230469 16.386719 25.328125 16.449219 23.96875 16.449219 C 22.988281 16.449219 22.785156 16.433594 22.785156 16.355469 C 22.785156 16.238281 23.46875 16.160156 24.015625 16.21875 C 24.925781 16.3125 25.355469 16.226562 25.257812 15.972656 C 25.226562 15.882812 25.015625 15.871094 23.585938 15.871094 C 22.175781 15.871094 21.953125 15.859375 21.953125 15.777344 C 21.953125 15.691406 22.179688 15.679688 23.613281 15.679688 C 24.523438 15.679688 25.285156 15.660156 25.300781 15.632812 C 25.316406 15.605469 25.347656 15.359375 25.375 15.085938 L 25.417969 14.589844 L 25.046875 14.421875 C 24.839844 14.332031 24.382812 14.144531 24.03125 14.011719 C 23.445312 13.789062 23.390625 13.777344 23.371094 13.886719 C 23.359375 13.964844 23.261719 14.027344 23.070312 14.074219 C 22.816406 14.136719 22.734375 14.125 22.320312 13.976562 C 21.550781 13.699219 19.964844 13.183594 19.878906 13.183594 C 19.835938 13.183594 19.648438 13.140625 19.46875 13.085938 C 19.136719 12.988281 19.023438 12.863281 19.265625 12.863281 C 19.378906 12.863281 19.457031 12.738281 19.34375 12.734375 C 19.316406 12.734375 18.878906 12.648438 18.367188 12.542969 C 17.859375 12.4375 17.375 12.351562 17.296875 12.351562 C 17.1875 12.351562 17.117188 12.425781 17.007812 12.652344 C 16.878906 12.917969 16.824219 12.964844 16.515625 13.074219 C 15.929688 13.273438 15.578125 13.128906 15.25 12.539062 C 15.125 12.316406 15.035156 12.226562 14.945312 12.230469 C 14.875 12.234375 14.484375 12.28125 14.078125 12.332031 M 10.386719 12.925781 C 10.425781 13.378906 10.453125 13.425781 10.59375 13.3125 C 10.667969 13.25 10.6875 13.136719 10.675781 12.902344 C 10.65625 12.613281 10.636719 12.574219 10.503906 12.554688 C 10.351562 12.53125 10.351562 12.539062 10.386719 12.925781 M 12.257812 12.632812 L 11.808594 12.703125 L 11.820312 13.070312 C 11.832031 13.46875 11.796875 13.511719 11.617188 13.3125 C 11.480469 13.160156 11 13.132812 10.886719 13.269531 C 10.804688 13.367188 10.855469 13.441406 11.007812 13.441406 C 11.0625 13.441406 11.246094 13.523438 11.410156 13.628906 L 11.710938 13.820312 L 11.871094 13.605469 C 12.074219 13.34375 12.320312 13.234375 12.648438 13.257812 C 12.859375 13.277344 12.914062 13.316406 13.023438 13.519531 C 13.140625 13.738281 13.167969 13.757812 13.359375 13.71875 C 13.617188 13.671875 13.625 13.746094 13.375 13.984375 C 13.152344 14.199219 13.132812 14.3125 13.308594 14.367188 C 13.53125 14.4375 13.824219 14.761719 13.824219 14.9375 C 13.824219 15.078125 13.851562 15.105469 14.011719 15.105469 C 14.113281 15.105469 14.332031 15.160156 14.492188 15.230469 L 14.789062 15.355469 L 14.613281 15.054688 C 14.453125 14.777344 13.304688 13.023438 13.0625 12.691406 C 12.949219 12.53125 12.894531 12.527344 12.257812 12.632812 M 16.925781 12.996094 C 16.90625 13.03125 16.964844 13.085938 17.054688 13.121094 C 17.269531 13.203125 17.40625 13.203125 17.40625 13.121094 C 17.40625 13.085938 17.402344 13.054688 17.390625 13.054688 C 17.382812 13.054688 17.28125 13.03125 17.167969 12.996094 C 17.042969 12.960938 16.949219 12.960938 16.925781 12.996094 M 9.246094 13.058594 C 9.1875 13.152344 9.207031 13.160156 9.503906 13.207031 L 9.761719 13.25 L 9.609375 13.121094 C 9.441406 12.976562 9.308594 12.957031 9.246094 13.058594 M 8.390625 13.335938 C 8.082031 13.664062 8.070312 14.230469 8.367188 14.464844 C 8.542969 14.605469 9.164062 14.644531 9.34375 14.527344 C 9.425781 14.476562 9.421875 14.464844 9.320312 14.464844 C 9.21875 14.464844 9.214844 14.449219 9.28125 14.367188 C 9.347656 14.289062 9.34375 14.25 9.265625 14.160156 C 9.214844 14.097656 9.148438 14.003906 9.121094 13.953125 C 9.09375 13.898438 9.160156 13.957031 9.265625 14.078125 C 9.457031 14.300781 9.460938 14.304688 9.59375 14.183594 C 9.667969 14.113281 9.726562 14.039062 9.726562 14.015625 C 9.726562 13.992188 9.585938 13.90625 9.414062 13.828125 C 9.195312 13.726562 9.0625 13.605469 8.964844 13.433594 C 8.796875 13.140625 8.605469 13.105469 8.390625 13.335938 M 9.910156 13.347656 C 9.824219 13.433594 9.765625 13.4375 9.539062 13.375 C 9.390625 13.335938 9.253906 13.316406 9.238281 13.335938 C 9.179688 13.390625 9.425781 13.703125 9.605469 13.796875 C 9.878906 13.9375 9.941406 13.914062 9.898438 13.695312 C 9.863281 13.523438 9.875 13.503906 10.019531 13.503906 C 10.191406 13.503906 10.195312 13.5 10.136719 13.347656 C 10.089844 13.222656 10.039062 13.222656 9.910156 13.347656 M 16.449219 13.339844 C 16.449219 13.398438 16.554688 13.464844 16.71875 13.503906 C 16.871094 13.542969 17.097656 13.605469 17.226562 13.636719 C 17.410156 13.683594 17.453125 13.722656 17.429688 13.816406 C 17.410156 13.890625 17.441406 13.949219 17.507812 13.976562 C 17.644531 14.027344 17.636719 14.035156 17.679688 13.757812 L 17.714844 13.53125 L 17.222656 13.390625 C 16.644531 13.222656 16.449219 13.210938 16.449219 13.339844 M 17.792969 13.3125 C 17.917969 13.394531 18.128906 13.394531 18.078125 13.3125 C 18.058594 13.277344 17.964844 13.25 17.867188 13.25 C 17.734375 13.25 17.71875 13.261719 17.792969 13.3125 M 18.378906 13.40625 C 18.394531 13.425781 18.769531 13.539062 19.207031 13.65625 C 19.640625 13.777344 20.363281 13.992188 20.804688 14.136719 C 21.710938 14.433594 21.742188 14.4375 21.632812 14.304688 C 21.542969 14.195312 20.308594 13.796875 19.285156 13.539062 C 18.675781 13.386719 18.304688 13.332031 18.378906 13.40625 M 12.414062 13.484375 C 12.292969 13.53125 11.972656 13.824219 11.898438 13.960938 C 11.863281 14.03125 11.875 14.152344 11.945312 14.3125 C 12.003906 14.460938 12.03125 14.652344 12.011719 14.796875 C 11.972656 15.097656 12.046875 15.109375 12.394531 14.855469 C 12.828125 14.542969 12.929688 14.371094 12.886719 14.027344 C 12.824219 13.546875 12.6875 13.386719 12.414062 13.484375 M 7.199219 13.820312 C 6.640625 14.0625 6.621094 14.078125 6.578125 14.316406 C 6.5 14.753906 6.527344 15.773438 6.632812 16.390625 C 6.902344 17.980469 7.824219 19.867188 9.304688 21.875 C 9.628906 22.3125 9.71875 22.398438 9.824219 22.363281 C 9.894531 22.339844 10.167969 22.265625 10.433594 22.199219 C 10.695312 22.132812 11 22.054688 11.105469 22.027344 L 11.296875 21.976562 L 10.957031 21.789062 C 9.542969 21.011719 8.773438 20.265625 8.191406 19.113281 C 7.949219 18.632812 7.855469 18.175781 8 18.175781 C 8.035156 18.175781 8.0625 18.140625 8.0625 18.101562 C 8.0625 18.058594 8.101562 17.980469 8.152344 17.925781 C 8.285156 17.765625 8.382812 17.285156 8.316406 17.109375 C 8.175781 16.742188 8.324219 16.132812 8.683594 15.605469 C 8.808594 15.417969 8.925781 15.25 8.941406 15.234375 C 8.953125 15.21875 9.082031 15.339844 9.222656 15.503906 C 9.363281 15.667969 9.6875 15.933594 9.945312 16.09375 C 10.402344 16.378906 10.558594 16.4375 10.558594 16.328125 C 10.558594 16.242188 10.96875 16.0625 11.160156 16.0625 C 11.296875 16.0625 11.328125 16.035156 11.328125 15.898438 C 11.328125 15.765625 11.304688 15.738281 11.214844 15.773438 C 10.890625 15.902344 10.390625 15.949219 10.117188 15.875 C 9.738281 15.769531 9.425781 15.453125 9.371094 15.121094 L 9.328125 14.859375 L 8.851562 14.835938 C 8.390625 14.8125 8.363281 14.800781 8.152344 14.574219 C 7.957031 14.359375 7.9375 14.300781 7.9375 13.953125 C 7.9375 13.6875 7.910156 13.570312 7.855469 13.570312 C 7.8125 13.570312 7.515625 13.683594 7.199219 13.820312 M 10.320312 13.613281 C 10.242188 13.628906 10.175781 13.667969 10.175781 13.699219 C 10.175781 13.734375 10.132812 13.761719 10.078125 13.761719 C 10.015625 13.761719 9.984375 13.824219 9.984375 13.941406 C 9.984375 14.050781 9.90625 14.226562 9.792969 14.367188 C 9.539062 14.6875 9.519531 15.15625 9.753906 15.390625 C 10.105469 15.746094 10.824219 15.738281 11.328125 15.375 C 11.910156 14.960938 11.929688 14.425781 11.382812 13.914062 C 11.070312 13.621094 10.75 13.53125 10.320312 13.613281 M 19.199219 14.007812 C 19.199219 14.097656 19.257812 14.125 19.535156 14.175781 C 19.816406 14.230469 19.871094 14.117188 19.601562 14.050781 C 19.503906 14.027344 19.375 13.996094 19.3125 13.976562 C 19.25 13.957031 19.199219 13.972656 19.199219 14.007812 M 20.128906 14.328125 C 20.304688 14.4375 20.605469 14.558594 20.800781 14.601562 C 20.992188 14.644531 21.214844 14.71875 21.289062 14.765625 C 21.390625 14.832031 21.441406 14.835938 21.472656 14.785156 C 21.496094 14.742188 21.507812 14.703125 21.496094 14.6875 C 21.476562 14.671875 20.398438 14.3125 19.902344 14.160156 C 19.851562 14.144531 19.953125 14.21875 20.128906 14.328125 M 15.832031 14.496094 C 15.890625 14.585938 15.984375 14.726562 16.039062 14.816406 C 16.148438 14.984375 16.320312 15.03125 16.320312 14.894531 C 16.320312 14.730469 15.996094 14.335938 15.863281 14.335938 C 15.734375 14.335938 15.734375 14.34375 15.832031 14.496094 M 17.984375 14.394531 C 17.984375 14.484375 18.488281 14.910156 18.59375 14.910156 C 18.765625 14.910156 18.691406 14.738281 18.449219 14.578125 C 18.160156 14.390625 17.984375 14.320312 17.984375 14.394531 M 12.890625 14.730469 C 12.625 15.015625 12.164062 15.296875 11.964844 15.296875 C 11.871094 15.296875 11.75 15.347656 11.691406 15.414062 C 11.5625 15.554688 11.554688 15.617188 11.671875 15.617188 C 11.71875 15.617188 11.804688 15.667969 11.859375 15.730469 C 12.007812 15.894531 12.25 15.859375 12.769531 15.597656 C 13.015625 15.476562 13.28125 15.355469 13.363281 15.328125 C 13.671875 15.238281 13.671875 14.84375 13.359375 14.628906 C 13.164062 14.488281 13.105469 14.5 12.890625 14.730469 M 22.207031 14.90625 L 22.207031 15.296875 L 22.558594 15.296875 C 22.824219 15.296875 22.910156 15.273438 22.910156 15.203125 C 22.910156 15.144531 22.828125 15.105469 22.671875 15.09375 C 22.445312 15.074219 22.429688 15.058594 22.398438 14.820312 C 22.347656 14.398438 22.207031 14.457031 22.207031 14.90625 M 21.667969 14.820312 C 21.644531 14.949219 21.554688 15.210938 21.472656 15.398438 C 21.328125 15.722656 21.3125 15.738281 21.109375 15.710938 C 20.992188 15.695312 20.671875 15.671875 20.398438 15.652344 C 19.792969 15.609375 19.507812 15.496094 19.226562 15.1875 C 19.066406 15.015625 18.988281 14.96875 18.9375 15.019531 C 18.78125 15.175781 19.207031 15.597656 19.691406 15.769531 C 19.839844 15.820312 20.269531 15.867188 20.699219 15.878906 C 21.554688 15.902344 21.535156 15.914062 21.753906 15.332031 C 21.925781 14.875 21.945312 14.632812 21.816406 14.605469 C 21.738281 14.589844 21.699219 14.652344 21.667969 14.820312 M 23.632812 15.183594 C 23.648438 15.238281 23.828125 15.269531 24.148438 15.28125 C 24.558594 15.296875 24.640625 15.285156 24.640625 15.203125 C 24.640625 15.121094 24.546875 15.105469 24.121094 15.105469 C 23.738281 15.105469 23.613281 15.125 23.632812 15.183594 M 13.699219 15.386719 C 13.617188 15.476562 13.402344 15.597656 13.222656 15.65625 C 12.828125 15.785156 12.601562 15.9375 12.640625 16.046875 C 12.65625 16.09375 12.644531 16.1875 12.617188 16.261719 C 12.582031 16.355469 12.613281 16.488281 12.714844 16.691406 C 12.902344 17.0625 12.902344 17.371094 12.714844 17.746094 C 12.527344 18.113281 12.503906 18.097656 13.535156 18.167969 C 14.210938 18.214844 14.296875 18.234375 14.546875 18.40625 C 14.695312 18.515625 14.824219 18.660156 14.835938 18.738281 C 14.867188 18.953125 15.003906 18.910156 15.285156 18.585938 C 15.78125 18.027344 15.871094 17.289062 15.535156 16.5625 C 15.261719 15.960938 14.613281 15.410156 14.015625 15.265625 C 13.890625 15.234375 13.816406 15.265625 13.699219 15.386719 M 16.671875 15.535156 C 16.933594 16.011719 17.011719 16.101562 17.097656 16.015625 C 17.15625 15.960938 17.132812 15.878906 17.003906 15.683594 C 16.796875 15.375 16.78125 15.230469 16.96875 15.398438 C 17.101562 15.519531 17.101562 15.519531 17.078125 15.390625 C 17.058594 15.289062 16.996094 15.261719 16.78125 15.25 L 16.503906 15.234375 L 16.671875 15.535156 M 8.84375 15.792969 C 8.445312 16.359375 8.390625 16.800781 8.65625 17.3125 C 8.855469 17.699219 9.269531 18.191406 9.351562 18.140625 C 9.382812 18.117188 9.578125 18.253906 9.777344 18.4375 C 10.207031 18.828125 10.59375 19.023438 11.335938 19.210938 C 11.800781 19.328125 11.988281 19.339844 12.796875 19.308594 C 13.796875 19.269531 14.476562 19.152344 14.632812 18.992188 C 14.785156 18.84375 14.683594 18.640625 14.378906 18.484375 C 14.15625 18.371094 13.941406 18.339844 13.023438 18.296875 C 12.425781 18.269531 11.804688 18.226562 11.648438 18.203125 C 11.207031 18.144531 10.777344 17.929688 10.523438 17.648438 C 10.316406 17.417969 10.296875 17.367188 10.320312 17.097656 C 10.332031 16.933594 10.355469 16.761719 10.371094 16.710938 C 10.390625 16.65625 10.222656 16.515625 9.929688 16.335938 C 9.671875 16.175781 9.363281 15.949219 9.242188 15.832031 C 9.125 15.714844 9.015625 15.617188 9 15.617188 C 8.980469 15.617188 8.914062 15.695312 8.84375 15.792969 M 11.546875 15.96875 C 11.496094 16.175781 11.617188 16.339844 11.714844 16.191406 C 11.792969 16.070312 11.765625 15.855469 11.667969 15.824219 C 11.625 15.808594 11.570312 15.875 11.546875 15.96875 M 12.074219 16.152344 C 11.984375 16.273438 11.925781 16.386719 11.949219 16.40625 C 12.023438 16.484375 12.277344 16.449219 12.378906 16.347656 C 12.515625 16.210938 12.507812 16.082031 12.359375 16.003906 C 12.257812 15.949219 12.210938 15.976562 12.074219 16.152344 M 10.835938 16.410156 C 10.679688 16.546875 10.667969 16.578125 10.738281 16.726562 C 10.816406 16.898438 11.007812 16.960938 11.007812 16.816406 C 11.007812 16.769531 11.066406 16.625 11.136719 16.496094 C 11.261719 16.257812 11.261719 16.257812 11.140625 16.257812 C 11.070312 16.257812 10.933594 16.324219 10.835938 16.410156 M 11.339844 16.464844 C 11.238281 16.585938 11.132812 16.894531 11.1875 16.894531 C 11.214844 16.894531 11.332031 16.800781 11.449219 16.679688 C 11.625 16.5 11.640625 16.457031 11.550781 16.425781 C 11.414062 16.371094 11.417969 16.371094 11.339844 16.464844 M 20.71875 16.558594 C 20.042969 17.371094 19.539062 17.753906 18.84375 17.984375 C 18.574219 18.074219 18.433594 18.15625 18.433594 18.222656 C 18.433594 18.46875 19.535156 18.03125 20.140625 17.542969 C 20.453125 17.289062 21.054688 16.566406 21.054688 16.441406 C 21.054688 16.324219 20.859375 16.390625 20.71875 16.558594 M 21.753906 16.574219 C 21.699219 16.664062 21.5625 16.882812 21.449219 17.0625 C 21.339844 17.242188 21.058594 17.566406 20.832031 17.789062 C 20.601562 18.007812 20.414062 18.222656 20.414062 18.269531 C 20.414062 18.316406 20.523438 18.433594 20.65625 18.53125 C 20.789062 18.628906 21.097656 18.890625 21.34375 19.105469 C 22.730469 20.332031 22.976562 20.542969 23.007812 20.542969 C 23.023438 20.542969 23.039062 20.476562 23.039062 20.394531 C 23.039062 20.277344 22.792969 20.03125 21.996094 19.339844 C 21.421875 18.84375 20.914062 18.394531 20.867188 18.339844 C 20.796875 18.253906 20.828125 18.191406 21.101562 17.902344 C 21.605469 17.371094 21.902344 16.882812 21.875 16.628906 L 21.855469 16.414062 L 21.753906 16.574219 M 11.652344 16.746094 C 11.574219 16.925781 11.222656 17.152344 11.03125 17.152344 C 10.957031 17.152344 10.824219 17.09375 10.734375 17.023438 C 10.539062 16.871094 10.46875 16.941406 10.527344 17.214844 C 10.605469 17.574219 11.125 17.886719 11.796875 17.976562 C 12.140625 18.023438 12.1875 18.015625 12.359375 17.875 C 12.621094 17.652344 12.707031 17.316406 12.597656 16.933594 L 12.511719 16.632812 L 12.117188 16.613281 C 11.757812 16.601562 11.714844 16.613281 11.652344 16.746094 M 15.9375 17.609375 C 15.9375 18.085938 15.457031 18.835938 15.042969 19.007812 C 14.933594 19.050781 14.8125 19.164062 14.769531 19.257812 C 14.722656 19.351562 14.554688 19.488281 14.378906 19.578125 C 14.113281 19.707031 13.972656 19.730469 13.449219 19.730469 C 13.078125 19.730469 12.691406 19.691406 12.480469 19.628906 C 11.992188 19.488281 11.621094 19.472656 11.484375 19.585938 C 11.316406 19.726562 10.710938 19.699219 10.398438 19.539062 C 10.257812 19.464844 10.011719 19.257812 9.855469 19.078125 C 9.695312 18.894531 9.414062 18.582031 9.222656 18.382812 C 9.03125 18.179688 8.792969 17.902344 8.695312 17.765625 L 8.511719 17.515625 L 8.511719 17.742188 C 8.511719 18.167969 8.921875 18.839844 9.59375 19.519531 C 10.308594 20.242188 10.671875 20.449219 11.386719 20.539062 C 12.089844 20.628906 13.328125 20.472656 14.179688 20.191406 C 14.878906 19.957031 15.847656 19.304688 16.035156 18.933594 C 16.160156 18.691406 16.148438 17.65625 16.015625 17.527344 C 15.953125 17.460938 15.9375 17.480469 15.9375 17.609375 M 9.074219 17.828125 C 9.160156 17.988281 9.34375 18.152344 9.34375 18.066406 C 9.34375 18.035156 9.269531 17.9375 9.175781 17.851562 C 9.023438 17.710938 9.015625 17.710938 9.074219 17.828125 M 10.015625 19.113281 C 10.335938 19.398438 10.609375 19.519531 10.941406 19.519531 C 11.25 19.519531 11.285156 19.421875 10.992188 19.367188 C 10.878906 19.34375 10.554688 19.226562 10.273438 19.105469 L 9.761719 18.886719 L 10.015625 19.113281 M 13.953125 19.371094 C 13.6875 19.421875 13.355469 19.484375 13.214844 19.515625 L 12.960938 19.570312 L 13.214844 19.574219 C 13.507812 19.582031 14.28125 19.429688 14.449219 19.332031 C 14.582031 19.253906 14.570312 19.257812 13.953125 19.371094 M 13.226562 20.039062 C 13.347656 20.074219 13.484375 20.074219 13.578125 20.035156 C 13.699219 19.988281 13.660156 19.976562 13.375 19.976562 C 13.058594 19.980469 13.042969 19.984375 13.226562 20.039062 M 15.039062 20.863281 C 14.722656 21.074219 13.65625 21.324219 12.578125 21.445312 C 11.90625 21.519531 11.777344 21.570312 11.777344 21.769531 C 11.777344 21.878906 11.839844 21.886719 12.753906 21.890625 C 13.289062 21.894531 13.867188 21.917969 14.035156 21.945312 L 14.34375 21.996094 L 14.703125 21.511719 C 14.902344 21.242188 15.105469 20.972656 15.15625 20.910156 C 15.261719 20.789062 15.195312 20.765625 15.039062 20.863281 "/>
<path style=" stroke:none;fill-rule:evenodd;fill:rgb(98.823529%,81.960785%,37.64706%);fill-opacity:1;" d="M 19.851562 10.734375 C 19.882812 10.902344 20.097656 10.921875 20.097656 10.757812 C 20.097656 10.664062 20.054688 10.625 19.964844 10.625 C 19.871094 10.625 19.835938 10.660156 19.851562 10.734375 M 20.351562 10.785156 C 20.351562 10.882812 20.386719 10.945312 20.449219 10.945312 C 20.507812 10.945312 20.542969 10.882812 20.542969 10.785156 C 20.542969 10.683594 20.507812 10.625 20.449219 10.625 C 20.386719 10.625 20.351562 10.683594 20.351562 10.785156 M 21.761719 10.785156 C 21.761719 10.910156 21.792969 10.945312 21.921875 10.945312 C 22.046875 10.945312 22.078125 10.910156 22.078125 10.785156 C 22.078125 10.65625 22.046875 10.625 21.921875 10.625 C 21.792969 10.625 21.761719 10.65625 21.761719 10.785156 M 22.382812 10.785156 C 22.402344 10.871094 22.425781 10.945312 22.441406 10.945312 C 22.453125 10.945312 22.464844 10.871094 22.464844 10.785156 C 22.464844 10.695312 22.4375 10.625 22.410156 10.625 C 22.378906 10.625 22.367188 10.695312 22.382812 10.785156 M 21.183594 12.574219 L 21.183594 13.308594 L 21.742188 13.476562 C 22.050781 13.570312 22.335938 13.660156 22.375 13.675781 C 22.421875 13.695312 22.4375 13.644531 22.417969 13.539062 C 22.394531 13.417969 22.34375 13.375 22.234375 13.375 C 22.082031 13.375 22.078125 13.363281 22.078125 12.800781 C 22.078125 12.484375 22.054688 12.222656 22.019531 12.222656 C 21.988281 12.222656 21.917969 12.207031 21.859375 12.183594 C 21.773438 12.152344 21.761719 12.214844 21.761719 12.632812 C 21.761719 13.105469 21.757812 13.113281 21.617188 13.0625 C 21.484375 13.011719 21.472656 12.964844 21.464844 12.503906 C 21.453125 11.820312 21.457031 11.839844 21.3125 11.839844 C 21.191406 11.839844 21.183594 11.882812 21.183594 12.574219 M 20.800781 13.03125 C 20.800781 13.085938 20.835938 13.121094 20.875 13.105469 C 20.996094 13.066406 21.015625 12.929688 20.902344 12.929688 C 20.84375 12.929688 20.800781 12.972656 20.800781 13.03125 M 8.96875 14.992188 C 8.925781 15.105469 8.957031 15.179688 9.140625 15.375 C 9.265625 15.507812 9.390625 15.59375 9.414062 15.566406 C 9.441406 15.542969 9.414062 15.367188 9.359375 15.183594 C 9.242188 14.816406 9.0625 14.726562 8.96875 14.992188 M 15.808594 16.125 L 15.648438 16.25 L 16.027344 16.988281 C 16.402344 17.714844 16.410156 17.738281 16.410156 18.257812 C 16.410156 18.679688 16.382812 18.839844 16.269531 19.054688 C 16.035156 19.496094 15.238281 20.058594 14.386719 20.378906 C 13.324219 20.777344 11.609375 20.921875 10.824219 20.679688 C 10.074219 20.445312 9.113281 19.566406 8.496094 18.546875 L 8.257812 18.152344 L 8.257812 18.457031 C 8.257812 18.789062 8.335938 18.976562 8.726562 19.550781 C 9.046875 20.027344 9.53125 20.546875 9.917969 20.832031 C 10.15625 21.007812 11.429688 21.761719 11.488281 21.761719 C 11.496094 21.761719 11.519531 21.679688 11.539062 21.578125 C 11.589844 21.335938 11.773438 21.269531 12.640625 21.179688 C 14.699219 20.964844 16.152344 20.203125 16.773438 19.007812 C 16.890625 18.777344 16.921875 18.613281 16.925781 18.207031 C 16.925781 17.75 16.90625 17.648438 16.699219 17.214844 C 16.5 16.804688 16.023438 15.996094 15.980469 16 C 15.972656 16.003906 15.894531 16.058594 15.808594 16.125 M 21.890625 16.453125 C 22.039062 16.730469 21.78125 17.21875 21.144531 17.871094 C 20.929688 18.089844 20.800781 18.265625 20.835938 18.296875 C 20.871094 18.328125 21.183594 18.601562 21.535156 18.910156 C 21.886719 19.21875 22.367188 19.640625 22.601562 19.847656 C 22.894531 20.105469 23.085938 20.222656 23.199219 20.222656 C 23.292969 20.222656 23.421875 20.253906 23.488281 20.289062 C 23.59375 20.34375 23.65625 20.246094 24.089844 19.375 C 24.53125 18.488281 25.015625 17.199219 25.113281 16.644531 L 25.152344 16.429688 L 24 16.464844 C 23.046875 16.496094 22.832031 16.488281 22.757812 16.410156 C 22.695312 16.351562 22.523438 16.320312 22.242188 16.320312 C 21.835938 16.320312 21.820312 16.324219 21.890625 16.453125 M 8.511719 17.738281 C 8.511719 18.253906 9.480469 19.558594 10.238281 20.074219 C 10.78125 20.441406 11.078125 20.511719 12 20.503906 C 13.238281 20.496094 14.296875 20.214844 15.164062 19.667969 C 15.660156 19.351562 15.992188 19.019531 16.0625 18.753906 C 16.140625 18.484375 16.140625 17.941406 16.066406 17.761719 C 16.007812 17.621094 16.007812 17.621094 15.875 18.058594 C 15.769531 18.402344 15.480469 18.769531 15.148438 18.976562 C 14.992188 19.078125 14.816406 19.238281 14.761719 19.332031 C 14.703125 19.429688 14.519531 19.5625 14.332031 19.644531 C 14.050781 19.765625 13.902344 19.785156 13.351562 19.769531 C 12.996094 19.761719 12.617188 19.71875 12.511719 19.675781 C 12.160156 19.535156 11.660156 19.503906 11.503906 19.613281 C 11.300781 19.757812 10.738281 19.742188 10.429688 19.582031 C 10.125 19.425781 9.742188 19.097656 9.605469 18.875 C 9.433594 18.59375 8.511719 17.636719 8.511719 17.738281 M 19.464844 19.304688 C 19.347656 19.355469 18.988281 19.472656 18.667969 19.5625 C 17.949219 19.769531 17.847656 19.832031 17.65625 20.195312 C 17.5 20.488281 17.445312 20.53125 17.375 20.414062 C 17.351562 20.375 17.195312 20.523438 17.019531 20.75 C 16.605469 21.277344 15.808594 22.4375 15.808594 22.507812 C 15.808594 22.535156 15.863281 22.59375 15.929688 22.636719 C 16.027344 22.699219 16.132812 22.667969 16.550781 22.460938 C 17.351562 22.0625 17.917969 21.941406 19.105469 21.90625 C 19.667969 21.890625 20.34375 21.90625 20.609375 21.941406 L 21.089844 22.011719 L 21.488281 21.617188 C 21.707031 21.398438 21.886719 21.191406 21.886719 21.152344 C 21.886719 21.117188 21.800781 20.992188 21.691406 20.878906 C 21.402344 20.570312 19.800781 19.199219 19.734375 19.207031 C 19.703125 19.207031 19.585938 19.253906 19.464844 19.304688 M 8.382812 19.882812 C 8.382812 20.050781 8.367188 20.25 8.351562 20.320312 C 8.324219 20.4375 8.976562 21.4375 9.546875 22.148438 L 9.71875 22.359375 L 10.089844 22.25 C 10.296875 22.191406 10.648438 22.105469 10.875 22.058594 L 11.289062 21.980469 L 10.84375 21.746094 C 9.90625 21.253906 9.195312 20.667969 8.660156 19.945312 L 8.382812 19.570312 L 8.382812 19.882812 M 12.160156 19.96875 C 12.160156 20.003906 12.21875 20.03125 12.292969 20.03125 C 12.363281 20.03125 12.40625 20.003906 12.382812 19.96875 C 12.363281 19.933594 12.304688 19.902344 12.253906 19.902344 C 12.203125 19.902344 12.160156 19.933594 12.160156 19.96875 M 13.121094 19.964844 C 12.988281 20.003906 12.980469 20.023438 13.066406 20.058594 C 13.222656 20.128906 13.652344 20.074219 13.679688 19.984375 C 13.710938 19.894531 13.386719 19.882812 13.121094 19.964844 "/>
<path style=" stroke:none;fill-rule:evenodd;fill:rgb(36.862746%,63.921571%,34.509805%);fill-opacity:1;" d="M 14.21875 12.535156 C 14.226562 12.644531 14.273438 12.746094 14.320312 12.765625 C 14.371094 12.785156 14.390625 12.824219 14.371094 12.855469 C 14.351562 12.886719 14.382812 12.933594 14.4375 12.953125 C 14.492188 12.972656 14.515625 13.023438 14.488281 13.066406 C 14.464844 13.105469 14.472656 13.121094 14.507812 13.101562 C 14.542969 13.078125 14.558594 12.953125 14.542969 12.820312 C 14.53125 12.683594 14.515625 12.539062 14.511719 12.496094 C 14.507812 12.453125 14.484375 12.414062 14.457031 12.414062 C 14.433594 12.414062 14.363281 12.398438 14.308594 12.375 C 14.226562 12.34375 14.207031 12.375 14.21875 12.535156 M 10.40625 12.597656 C 10.359375 12.671875 10.4375 13.3125 10.492188 13.3125 C 10.65625 13.3125 10.734375 13.007812 10.648438 12.6875 C 10.609375 12.546875 10.46875 12.492188 10.40625 12.597656 M 9.375 13.121094 C 9.550781 13.195312 9.613281 13.195312 9.566406 13.121094 C 9.546875 13.085938 9.464844 13.058594 9.386719 13.058594 C 9.253906 13.066406 9.253906 13.066406 9.375 13.121094 M 8.488281 13.257812 C 8.199219 13.425781 8.09375 14.140625 8.320312 14.386719 C 8.492188 14.570312 8.703125 14.617188 9.074219 14.554688 C 9.308594 14.515625 9.335938 14.496094 9.203125 14.480469 C 9.109375 14.464844 9.003906 14.421875 8.964844 14.375 C 8.914062 14.3125 8.941406 14.300781 9.089844 14.324219 C 9.195312 14.339844 9.28125 14.335938 9.28125 14.316406 C 9.28125 14.300781 9.207031 14.160156 9.121094 14.007812 C 9.035156 13.851562 8.960938 13.652344 8.960938 13.5625 C 8.960938 13.402344 8.789062 13.183594 8.667969 13.1875 C 8.632812 13.1875 8.554688 13.21875 8.488281 13.257812 M 14.847656 13.246094 C 14.847656 13.28125 14.875 13.3125 14.910156 13.3125 C 14.941406 13.3125 15.058594 13.503906 15.171875 13.734375 C 15.363281 14.136719 15.382812 14.15625 15.558594 14.121094 C 15.714844 14.089844 15.742188 14.105469 15.742188 14.210938 C 15.742188 14.332031 15.75 14.332031 15.90625 14.234375 C 16.03125 14.152344 16.085938 14.144531 16.15625 14.207031 C 16.207031 14.25 16.285156 14.261719 16.328125 14.234375 C 16.375 14.207031 16.386719 14.214844 16.359375 14.261719 C 16.332031 14.304688 16.351562 14.335938 16.410156 14.335938 C 16.460938 14.335938 16.523438 14.304688 16.542969 14.269531 C 16.570312 14.230469 16.632812 14.265625 16.699219 14.347656 C 16.808594 14.484375 16.808594 14.492188 16.695312 14.617188 C 16.53125 14.792969 16.546875 14.84375 16.769531 14.890625 C 16.992188 14.933594 17.089844 15.039062 16.90625 15.039062 C 16.835938 15.039062 16.765625 15.082031 16.746094 15.136719 C 16.714844 15.210938 16.742188 15.226562 16.855469 15.207031 C 17.011719 15.179688 17.25 15.378906 17.1875 15.484375 C 17.167969 15.515625 17.199219 15.554688 17.253906 15.578125 C 17.328125 15.605469 17.34375 15.585938 17.3125 15.488281 C 17.289062 15.414062 17.300781 15.359375 17.339844 15.359375 C 17.425781 15.359375 17.429688 15.660156 17.34375 15.710938 C 17.308594 15.734375 17.296875 15.785156 17.320312 15.828125 C 17.347656 15.871094 17.304688 15.847656 17.226562 15.78125 C 17.152344 15.714844 17.089844 15.628906 17.089844 15.589844 C 17.089844 15.550781 17.027344 15.480469 16.953125 15.433594 C 16.820312 15.351562 16.820312 15.351562 16.9375 15.546875 C 17 15.65625 17.074219 15.742188 17.101562 15.742188 C 17.128906 15.742188 17.152344 15.773438 17.152344 15.808594 C 17.152344 15.847656 17.210938 15.941406 17.277344 16.019531 C 17.347656 16.097656 17.496094 16.261719 17.605469 16.382812 C 17.714844 16.507812 17.78125 16.566406 17.753906 16.519531 C 17.722656 16.457031 17.734375 16.445312 17.78125 16.472656 C 17.824219 16.5 17.855469 16.550781 17.855469 16.585938 C 17.855469 16.730469 18.214844 17.207031 18.339844 17.230469 C 18.527344 17.269531 18.625 17.222656 18.625 17.089844 C 18.625 16.9375 18.8125 16.859375 18.820312 17.011719 C 18.824219 17.097656 18.832031 17.101562 18.863281 17.023438 C 18.878906 16.972656 18.941406 16.878906 18.996094 16.816406 C 19.0625 16.738281 19.066406 16.703125 19.011719 16.703125 C 18.894531 16.703125 19.089844 16.527344 19.238281 16.503906 C 19.40625 16.476562 19.519531 16.558594 19.519531 16.707031 C 19.519531 16.933594 19.703125 16.84375 19.75 16.597656 C 19.789062 16.386719 19.773438 16.347656 19.578125 16.1875 C 19.457031 16.089844 19.332031 16.015625 19.300781 16.019531 C 19.265625 16.027344 19.238281 15.988281 19.234375 15.9375 C 19.234375 15.882812 19.175781 15.832031 19.105469 15.820312 C 19.035156 15.804688 18.945312 15.765625 18.910156 15.726562 C 18.867188 15.683594 18.878906 15.675781 18.945312 15.710938 C 18.996094 15.734375 18.925781 15.660156 18.789062 15.542969 C 18.148438 14.992188 17.675781 14.476562 17.632812 14.277344 C 17.59375 14.105469 17.578125 14.085938 17.515625 14.171875 C 17.472656 14.226562 17.339844 14.289062 17.222656 14.3125 C 17.035156 14.351562 17.007812 14.339844 17.042969 14.25 C 17.078125 14.164062 17.039062 14.144531 16.847656 14.136719 C 16.714844 14.132812 16.527344 14.136719 16.433594 14.140625 C 16.25 14.152344 16.175781 13.996094 16.335938 13.929688 C 16.378906 13.914062 16.351562 13.894531 16.273438 13.894531 C 16.179688 13.890625 16.144531 13.859375 16.167969 13.796875 C 16.1875 13.746094 16.234375 13.714844 16.277344 13.730469 C 16.371094 13.765625 16.523438 13.457031 16.441406 13.402344 C 16.410156 13.382812 16.398438 13.339844 16.417969 13.308594 C 16.4375 13.273438 16.425781 13.246094 16.386719 13.246094 C 16.351562 13.246094 16.320312 13.277344 16.320312 13.3125 C 16.320312 13.410156 15.800781 13.386719 15.59375 13.28125 C 15.386719 13.171875 14.847656 13.148438 14.847656 13.246094 M 9.914062 13.351562 C 9.851562 13.429688 9.765625 13.441406 9.542969 13.40625 L 9.257812 13.363281 L 9.355469 13.515625 C 9.410156 13.597656 9.546875 13.71875 9.660156 13.785156 L 9.867188 13.90625 L 9.84375 13.6875 C 9.828125 13.503906 9.847656 13.46875 9.96875 13.453125 C 10.113281 13.429688 10.15625 13.347656 10.054688 13.285156 C 10.023438 13.265625 9.960938 13.292969 9.914062 13.351562 M 12.136719 13.714844 C 11.894531 13.945312 11.859375 14.066406 11.972656 14.285156 C 12.011719 14.355469 12.042969 14.554688 12.042969 14.730469 C 12.039062 15.074219 12.019531 15.070312 12.464844 14.769531 C 12.753906 14.574219 12.988281 14.21875 12.875 14.152344 C 12.839844 14.128906 12.800781 13.980469 12.789062 13.824219 C 12.769531 13.554688 12.753906 13.535156 12.566406 13.515625 C 12.414062 13.5 12.316406 13.546875 12.136719 13.714844 M 9.132812 13.820312 C 9.175781 13.910156 9.273438 14.054688 9.34375 14.144531 C 9.472656 14.300781 9.476562 14.300781 9.570312 14.179688 C 9.621094 14.113281 9.664062 14.039062 9.664062 14.019531 C 9.664062 14 9.523438 13.910156 9.355469 13.820312 L 9.046875 13.65625 L 9.132812 13.820312 M 15.109375 13.902344 C 15.152344 13.984375 15.238281 14.117188 15.304688 14.199219 C 15.371094 14.28125 15.402344 14.382812 15.378906 14.421875 C 15.355469 14.464844 15.382812 14.457031 15.445312 14.40625 C 15.558594 14.316406 15.597656 14.171875 15.492188 14.238281 C 15.457031 14.257812 15.351562 14.160156 15.257812 14.019531 C 15.070312 13.738281 14.988281 13.671875 15.109375 13.902344 M 16.035156 14.40625 C 16.171875 14.554688 16.183594 14.558594 16.164062 14.421875 C 16.15625 14.363281 16.097656 14.308594 16.039062 14.296875 C 15.929688 14.28125 15.929688 14.289062 16.035156 14.40625 M 24 14.917969 C 24 15.003906 24.089844 15.027344 24.222656 14.976562 C 24.335938 14.9375 24.328125 14.929688 24.175781 14.898438 C 24.078125 14.878906 24 14.890625 24 14.917969 M 24.421875 15.011719 C 24.394531 15.082031 24.417969 15.105469 24.492188 15.09375 C 24.550781 15.082031 24.609375 15.035156 24.625 14.992188 C 24.664062 14.875 24.46875 14.894531 24.421875 15.011719 M 25.21875 15.046875 C 25.21875 15.128906 25.246094 15.242188 25.28125 15.296875 C 25.324219 15.363281 25.332031 15.324219 25.300781 15.167969 C 25.253906 14.890625 25.214844 14.839844 25.21875 15.046875 M 25.105469 15.484375 C 25.03125 15.601562 24.941406 15.613281 24.144531 15.632812 L 23.265625 15.652344 L 24.238281 15.664062 L 25.214844 15.679688 L 25.214844 15.519531 C 25.214844 15.328125 25.207031 15.324219 25.105469 15.484375 M 18.59375 15.875 C 18.617188 15.914062 18.578125 15.960938 18.503906 15.980469 C 18.429688 16 18.367188 16.058594 18.367188 16.109375 C 18.367188 16.167969 18.332031 16.191406 18.273438 16.171875 C 18.171875 16.128906 18.078125 16.339844 18.144531 16.453125 C 18.21875 16.570312 18.585938 16.492188 18.734375 16.320312 C 18.902344 16.136719 18.925781 15.9375 18.785156 15.9375 C 18.730469 15.9375 18.6875 15.90625 18.6875 15.871094 C 18.6875 15.835938 18.65625 15.808594 18.621094 15.808594 C 18.582031 15.808594 18.570312 15.839844 18.59375 15.875 M 11.585938 16.066406 C 11.585938 16.183594 11.609375 16.246094 11.648438 16.222656 C 11.683594 16.203125 11.710938 16.113281 11.710938 16.027344 C 11.710938 15.941406 11.683594 15.871094 11.648438 15.871094 C 11.613281 15.871094 11.585938 15.960938 11.585938 16.066406 M 12.039062 16.199219 L 11.886719 16.394531 L 12.136719 16.371094 C 12.351562 16.355469 12.382812 16.332031 12.382812 16.191406 C 12.382812 15.964844 12.21875 15.96875 12.039062 16.199219 M 10.863281 16.390625 C 10.730469 16.464844 10.714844 16.722656 10.835938 16.820312 C 10.902344 16.875 10.949219 16.828125 11.058594 16.605469 C 11.1875 16.34375 11.1875 16.320312 11.085938 16.320312 C 11.027344 16.324219 10.925781 16.351562 10.863281 16.390625 M 19.917969 16.425781 C 19.859375 16.449219 19.871094 16.507812 19.96875 16.640625 C 20.121094 16.851562 20.132812 16.96875 20 16.917969 C 19.945312 16.898438 19.902344 16.914062 19.902344 16.953125 C 19.902344 16.992188 19.9375 17.023438 19.980469 17.023438 C 20.019531 17.023438 19.988281 17.097656 19.902344 17.183594 C 19.820312 17.273438 19.722656 17.34375 19.6875 17.34375 C 19.648438 17.34375 19.652344 17.3125 19.699219 17.265625 C 19.742188 17.226562 19.777344 17.152344 19.777344 17.105469 C 19.777344 17.039062 19.734375 17.046875 19.617188 17.132812 C 19.527344 17.199219 19.464844 17.292969 19.480469 17.351562 C 19.515625 17.5 19.460938 17.558594 19.144531 17.707031 C 18.929688 17.804688 18.886719 17.84375 18.96875 17.875 C 19.035156 17.902344 19.0625 17.894531 19.039062 17.855469 C 19.019531 17.820312 19.027344 17.792969 19.0625 17.792969 C 19.097656 17.792969 19.207031 17.757812 19.308594 17.71875 C 19.40625 17.675781 19.511719 17.648438 19.539062 17.65625 C 19.570312 17.660156 19.574219 17.636719 19.554688 17.601562 C 19.519531 17.546875 19.613281 17.503906 19.664062 17.550781 C 19.71875 17.601562 20.539062 16.78125 20.703125 16.515625 C 20.742188 16.453125 20.695312 16.445312 20.496094 16.476562 C 20.335938 16.503906 20.222656 16.496094 20.195312 16.453125 C 20.152344 16.378906 20.054688 16.371094 19.917969 16.425781 M 11.300781 16.589844 C 11.125 16.84375 11.183594 16.9375 11.390625 16.734375 C 11.496094 16.636719 11.585938 16.527344 11.585938 16.5 C 11.585938 16.394531 11.394531 16.453125 11.300781 16.589844 "/>
<path style=" stroke:none;fill-rule:evenodd;fill:rgb(88.627452%,40.392157%,46.27451%);fill-opacity:1;" d="M 9.472656 11.457031 C 9.472656 12.550781 9.484375 12.734375 9.566406 12.734375 C 9.648438 12.734375 9.664062 12.609375 9.664062 11.984375 C 9.664062 11.039062 9.597656 10.175781 9.527344 10.175781 C 9.496094 10.175781 9.472656 10.753906 9.472656 11.457031 M 9.871094 10.734375 C 9.855469 10.78125 9.859375 10.859375 9.878906 10.914062 C 9.910156 10.996094 10.035156 11.007812 10.605469 10.996094 C 11.261719 10.976562 11.296875 10.96875 11.316406 10.835938 C 11.335938 10.699219 11.316406 10.695312 10.621094 10.675781 C 10.089844 10.660156 9.894531 10.675781 9.871094 10.734375 M 9.882812 11.285156 C 9.867188 11.328125 9.859375 11.738281 9.871094 12.195312 C 9.886719 12.921875 9.902344 13.023438 10 13.042969 C 10.09375 13.0625 10.113281 13.015625 10.113281 12.753906 C 10.113281 12.582031 10.148438 12.40625 10.1875 12.363281 C 10.25 12.304688 10.25 12.289062 10.1875 12.289062 C 10.148438 12.289062 10.113281 12.230469 10.113281 12.160156 C 10.113281 12.042969 10.15625 12.03125 10.558594 12.03125 C 10.964844 12.03125 11.007812 12.042969 11.007812 12.160156 C 11.007812 12.246094 10.964844 12.289062 10.878906 12.289062 C 10.753906 12.289062 10.753906 12.296875 10.847656 12.476562 C 10.898438 12.582031 10.945312 12.710938 10.945312 12.765625 C 10.945312 12.832031 11.003906 12.863281 11.136719 12.863281 L 11.328125 12.863281 L 11.328125 11.199219 L 10.621094 11.199219 C 10.101562 11.199219 9.90625 11.222656 9.882812 11.285156 M 11.519531 12.03125 C 11.519531 12.675781 11.539062 12.867188 11.601562 12.847656 C 11.660156 12.828125 11.679688 12.605469 11.679688 12.03125 C 11.679688 11.457031 11.660156 11.234375 11.601562 11.214844 C 11.539062 11.195312 11.519531 11.386719 11.519531 12.03125 M 20.015625 11.246094 C 20.132812 11.261719 20.304688 11.261719 20.402344 11.246094 C 20.496094 11.230469 20.402344 11.21875 20.191406 11.21875 C 19.980469 11.21875 19.902344 11.230469 20.015625 11.246094 M 21.789062 11.246094 C 22.199219 11.261719 22.445312 11.296875 22.476562 11.347656 C 22.511719 11.398438 22.527344 11.390625 22.527344 11.3125 C 22.527344 11.210938 22.457031 11.203125 21.839844 11.214844 L 21.152344 11.226562 L 21.789062 11.246094 M 22.1875 11.371094 C 22.289062 11.390625 22.335938 11.457031 22.355469 11.605469 C 22.378906 11.800781 22.378906 11.796875 22.375 11.585938 C 22.367188 11.390625 22.34375 11.359375 22.207031 11.347656 C 22.074219 11.339844 22.070312 11.34375 22.1875 11.371094 M 10.113281 11.550781 C 10.113281 11.707031 10.125 11.710938 10.558594 11.710938 C 10.996094 11.710938 11.007812 11.707031 11.007812 11.550781 C 11.007812 11.398438 10.996094 11.390625 10.558594 11.390625 C 10.125 11.390625 10.113281 11.398438 10.113281 11.550781 M 21.464844 12.1875 C 21.445312 12.238281 21.441406 12.332031 21.460938 12.394531 C 21.480469 12.472656 21.492188 12.457031 21.496094 12.339844 C 21.5 12.214844 21.542969 12.160156 21.648438 12.140625 L 21.792969 12.113281 L 21.644531 12.105469 C 21.566406 12.101562 21.484375 12.136719 21.464844 12.1875 M 22.359375 12.769531 C 22.359375 13.121094 22.371094 13.253906 22.382812 13.070312 C 22.394531 12.882812 22.394531 12.597656 22.382812 12.429688 C 22.371094 12.265625 22.359375 12.414062 22.359375 12.769531 M 13.554688 19.5 C 13.632812 19.515625 13.746094 19.515625 13.808594 19.5 C 13.871094 19.484375 13.804688 19.472656 13.664062 19.472656 C 13.523438 19.472656 13.472656 19.484375 13.554688 19.5 "/>
<path style=" stroke:none;fill-rule:evenodd;fill:rgb(92.941177%,31.764707%,31.764707%);fill-opacity:1;" d="M 10.289062 10.671875 C 10.472656 10.683594 10.773438 10.683594 10.960938 10.671875 C 11.144531 10.660156 10.992188 10.648438 10.625 10.648438 C 10.253906 10.648438 10.101562 10.660156 10.289062 10.671875 M 10.433594 13.609375 C 10.136719 13.710938 10.046875 13.789062 10.046875 13.953125 C 10.046875 14.050781 9.980469 14.183594 9.886719 14.273438 C 9.800781 14.355469 9.742188 14.433594 9.757812 14.449219 C 9.773438 14.464844 9.742188 14.519531 9.691406 14.570312 C 9.535156 14.730469 9.578125 15.140625 9.777344 15.363281 C 10.183594 15.820312 11.078125 15.703125 11.582031 15.128906 C 11.765625 14.917969 11.785156 14.859375 11.757812 14.609375 C 11.722656 14.292969 11.464844 13.925781 11.160156 13.75 C 10.953125 13.628906 10.578125 13.554688 10.433594 13.609375 M 10.238281 14.078125 C 10.238281 14.148438 10.269531 14.207031 10.304688 14.207031 C 10.339844 14.207031 10.367188 14.167969 10.367188 14.117188 C 10.367188 14.066406 10.339844 14.003906 10.304688 13.984375 C 10.269531 13.960938 10.238281 14.003906 10.238281 14.078125 M 13.007812 14.660156 C 12.78125 14.929688 12.265625 15.257812 12.011719 15.292969 C 11.667969 15.339844 11.570312 15.5 11.777344 15.671875 C 12.003906 15.859375 12.257812 15.839844 12.765625 15.582031 C 13.007812 15.460938 13.246094 15.359375 13.289062 15.359375 C 13.398438 15.359375 13.566406 15.105469 13.566406 14.933594 C 13.566406 14.804688 13.300781 14.527344 13.175781 14.527344 C 13.144531 14.527344 13.070312 14.585938 13.007812 14.660156 M 10.367188 14.816406 C 10.367188 14.867188 10.398438 14.910156 10.433594 14.910156 C 10.46875 14.910156 10.496094 14.867188 10.496094 14.816406 C 10.496094 14.761719 10.46875 14.71875 10.433594 14.71875 C 10.398438 14.71875 10.367188 14.761719 10.367188 14.816406 M 10.980469 15.097656 C 10.933594 15.171875 11.035156 15.246094 11.09375 15.1875 C 11.15625 15.125 11.144531 15.039062 11.074219 15.039062 C 11.042969 15.039062 11 15.066406 10.980469 15.097656 M 9.4375 15.621094 C 9.382812 15.707031 9.53125 15.835938 10.066406 16.15625 L 10.433594 16.378906 L 10.664062 16.222656 C 10.792969 16.136719 10.980469 16.0625 11.078125 16.0625 C 11.277344 16.0625 11.347656 15.996094 11.292969 15.851562 C 11.261719 15.769531 11.21875 15.769531 10.957031 15.851562 C 10.5 15.992188 9.992188 15.914062 9.621094 15.644531 C 9.519531 15.570312 9.472656 15.5625 9.4375 15.621094 M 11.742188 16.640625 C 11.761719 16.667969 11.660156 16.792969 11.519531 16.921875 C 11.238281 17.171875 10.898438 17.234375 10.753906 17.054688 C 10.707031 17.003906 10.648438 16.960938 10.617188 16.960938 C 10.511719 16.960938 10.558594 17.324219 10.6875 17.488281 C 10.859375 17.707031 11.414062 17.929688 11.871094 17.96875 C 12.21875 17.996094 12.269531 17.984375 12.40625 17.835938 C 12.597656 17.628906 12.664062 17.328125 12.59375 16.964844 C 12.566406 16.808594 12.535156 16.675781 12.527344 16.671875 C 12.472656 16.628906 11.71875 16.597656 11.742188 16.640625 M 10.015625 19.109375 C 10.367188 19.40625 10.484375 19.464844 10.8125 19.5 C 11.246094 19.546875 11.222656 19.441406 10.769531 19.300781 C 10.566406 19.238281 10.292969 19.128906 10.164062 19.0625 C 9.839844 18.898438 9.785156 18.917969 10.015625 19.109375 M 14.289062 19.328125 C 14.074219 19.417969 14.113281 19.460938 14.335938 19.382812 C 14.441406 19.34375 14.527344 19.304688 14.527344 19.289062 C 14.527344 19.25 14.449219 19.265625 14.289062 19.328125 "/>
<path style=" stroke:none;fill-rule:evenodd;fill:rgb(38.039216%,63.921571%,35.294119%);fill-opacity:1;" d="M 9.871094 10.175781 C 9.871094 10.300781 9.882812 10.351562 9.898438 10.289062 C 9.917969 10.226562 9.917969 10.125 9.898438 10.0625 C 9.882812 10.003906 9.871094 10.054688 9.871094 10.175781 M 23.324219 11.457031 C 23.324219 12.210938 23.332031 12.523438 23.34375 12.144531 C 23.355469 11.765625 23.355469 11.144531 23.34375 10.769531 C 23.332031 10.390625 23.324219 10.699219 23.324219 11.457031 M 11.472656 10.71875 C 11.476562 10.894531 11.488281 10.960938 11.5 10.863281 C 11.515625 10.765625 11.515625 10.621094 11.5 10.542969 C 11.484375 10.464844 11.472656 10.542969 11.472656 10.71875 M 14.433594 12.351562 C 14.335938 12.390625 14.332031 12.40625 14.40625 12.410156 C 14.511719 12.417969 14.519531 12.445312 14.535156 12.90625 C 14.542969 13.132812 14.574219 13.207031 14.664062 13.230469 C 14.730469 13.25 14.785156 13.289062 14.785156 13.324219 C 14.785156 13.355469 14.75 13.363281 14.710938 13.339844 C 14.671875 13.316406 14.746094 13.449219 14.875 13.640625 C 15 13.828125 15.136719 13.984375 15.179688 13.984375 C 15.21875 13.984375 15.265625 14.023438 15.28125 14.074219 C 15.304688 14.132812 15.285156 14.144531 15.226562 14.109375 C 15.179688 14.082031 15.207031 14.144531 15.28125 14.25 C 15.390625 14.402344 15.457031 14.441406 15.582031 14.414062 C 15.699219 14.394531 15.742188 14.34375 15.742188 14.234375 C 15.742188 14.101562 15.722656 14.085938 15.558594 14.121094 C 15.382812 14.15625 15.363281 14.136719 15.171875 13.734375 C 15.058594 13.503906 14.941406 13.3125 14.910156 13.3125 C 14.875 13.3125 14.847656 13.28125 14.847656 13.246094 C 14.847656 13.148438 15.386719 13.171875 15.59375 13.28125 C 15.828125 13.402344 16.238281 13.402344 16.359375 13.28125 C 16.445312 13.195312 16.417969 13.183594 16.113281 13.183594 C 15.894531 13.183594 15.714844 13.144531 15.613281 13.074219 C 15.527344 13.011719 15.441406 12.96875 15.425781 12.976562 C 15.40625 12.984375 15.394531 12.957031 15.394531 12.910156 C 15.390625 12.867188 15.320312 12.710938 15.234375 12.558594 C 15.09375 12.308594 15.0625 12.289062 14.820312 12.292969 C 14.675781 12.296875 14.503906 12.320312 14.433594 12.351562 M 17.054688 12.613281 C 16.988281 12.757812 16.878906 12.914062 16.804688 12.964844 C 16.710938 13.03125 16.699219 13.054688 16.773438 13.054688 C 16.828125 13.054688 16.898438 13.027344 16.933594 12.992188 C 17.023438 12.902344 17.492188 13.039062 17.453125 13.144531 C 17.433594 13.191406 17.5 13.253906 17.601562 13.292969 C 17.75 13.347656 17.777344 13.34375 17.746094 13.269531 C 17.71875 13.195312 17.75 13.1875 17.894531 13.222656 C 18.136719 13.28125 18.160156 13.304688 18.046875 13.386719 C 17.96875 13.441406 17.972656 13.445312 18.070312 13.414062 C 18.132812 13.394531 18.238281 13.40625 18.308594 13.441406 C 18.40625 13.496094 18.421875 13.488281 18.390625 13.410156 C 18.363281 13.332031 18.394531 13.320312 18.570312 13.351562 C 19.28125 13.476562 21.507812 14.140625 21.671875 14.28125 C 21.714844 14.3125 21.730469 14.398438 21.714844 14.464844 C 21.6875 14.566406 21.710938 14.589844 21.832031 14.585938 C 21.914062 14.585938 22.042969 14.558594 22.113281 14.53125 C 22.3125 14.453125 22.398438 14.519531 22.441406 14.789062 C 22.476562 15.015625 22.496094 15.035156 22.710938 15.050781 C 22.871094 15.066406 22.949219 15.105469 22.964844 15.183594 C 22.980469 15.277344 22.933594 15.296875 22.660156 15.296875 C 22.371094 15.296875 22.335938 15.3125 22.300781 15.453125 C 22.273438 15.546875 22.207031 15.617188 22.121094 15.628906 C 22.046875 15.640625 22.660156 15.640625 23.488281 15.628906 C 24.917969 15.609375 24.996094 15.601562 25.105469 15.476562 L 25.214844 15.347656 L 25.222656 15.496094 C 25.234375 15.722656 25.335938 15.183594 25.339844 14.875 L 25.34375 14.609375 L 24.910156 14.414062 C 24.394531 14.175781 23.507812 13.824219 23.429688 13.824219 C 23.398438 13.824219 23.359375 13.878906 23.34375 13.945312 C 23.289062 14.15625 22.792969 14.191406 22.347656 14.015625 C 21.644531 13.742188 20.503906 13.371094 19.871094 13.210938 C 19.15625 13.027344 19.054688 12.96875 19.230469 12.84375 C 19.339844 12.761719 19.332031 12.753906 19.128906 12.710938 C 18.78125 12.636719 17.265625 12.351562 17.214844 12.351562 C 17.191406 12.351562 17.117188 12.46875 17.054688 12.613281 M 12.511719 12.613281 C 12.335938 12.640625 12.097656 12.683594 11.980469 12.703125 L 11.769531 12.742188 L 11.8125 13.089844 C 11.851562 13.425781 11.816406 13.503906 11.675781 13.390625 C 11.640625 13.367188 11.667969 13.394531 11.734375 13.457031 C 11.847656 13.5625 11.863281 13.5625 12.039062 13.410156 C 12.425781 13.085938 12.898438 13.152344 13.070312 13.554688 C 13.113281 13.648438 13.148438 13.734375 13.152344 13.742188 C 13.15625 13.75 13.257812 13.730469 13.375 13.695312 C 13.496094 13.660156 13.605469 13.648438 13.621094 13.664062 C 13.636719 13.679688 13.546875 13.808594 13.417969 13.949219 C 13.171875 14.21875 13.128906 14.335938 13.265625 14.335938 C 13.429688 14.335938 13.824219 14.726562 13.824219 14.882812 C 13.824219 14.988281 13.859375 15.039062 13.9375 15.042969 C 14.039062 15.046875 14.289062 15.128906 14.621094 15.265625 C 14.734375 15.316406 14.734375 15.300781 14.59375 15.066406 C 14.046875 14.144531 12.949219 12.539062 12.875 12.550781 C 12.851562 12.554688 12.6875 12.582031 12.511719 12.613281 M 11.054688 13.230469 C 11.136719 13.246094 11.265625 13.246094 11.34375 13.230469 C 11.421875 13.214844 11.359375 13.203125 11.199219 13.203125 C 11.042969 13.203125 10.976562 13.214844 11.054688 13.230469 M 16.394531 13.496094 C 16.414062 13.664062 16.371094 13.769531 16.292969 13.738281 C 16.242188 13.71875 16.1875 13.746094 16.167969 13.796875 C 16.144531 13.859375 16.179688 13.890625 16.273438 13.894531 C 16.351562 13.894531 16.378906 13.914062 16.335938 13.929688 C 16.175781 13.996094 16.25 14.152344 16.433594 14.140625 C 16.527344 14.136719 16.714844 14.132812 16.847656 14.136719 C 17.039062 14.144531 17.078125 14.164062 17.042969 14.25 C 17.007812 14.339844 17.035156 14.351562 17.222656 14.3125 C 17.339844 14.289062 17.472656 14.226562 17.515625 14.171875 C 17.582031 14.082031 17.59375 14.082031 17.617188 14.1875 C 17.644531 14.285156 17.648438 14.28125 17.65625 14.167969 C 17.660156 14.082031 17.617188 14.019531 17.535156 13.996094 C 17.460938 13.976562 17.40625 13.910156 17.40625 13.828125 C 17.40625 13.746094 17.367188 13.695312 17.296875 13.695312 C 17.234375 13.695312 17.003906 13.640625 16.785156 13.574219 C 16.566406 13.507812 16.390625 13.472656 16.394531 13.496094 M 7.296875 13.796875 C 7 13.917969 6.710938 14.0625 6.65625 14.113281 C 6.578125 14.195312 6.5625 14.390625 6.566406 15.15625 C 6.574219 16.152344 6.644531 16.609375 6.957031 17.601562 C 7.148438 18.214844 8.191406 20.328125 8.289062 20.304688 C 8.324219 20.296875 8.359375 20.132812 8.371094 19.941406 C 8.386719 19.660156 8.355469 19.523438 8.203125 19.21875 C 7.917969 18.652344 7.839844 18.316406 7.964844 18.179688 C 8.019531 18.121094 8.0625 18.039062 8.0625 18 C 8.0625 17.957031 8.113281 17.898438 8.175781 17.863281 C 8.269531 17.8125 8.285156 17.710938 8.273438 17.140625 C 8.257812 16.367188 8.351562 16.007812 8.683594 15.574219 C 8.808594 15.410156 8.921875 15.207031 8.9375 15.117188 C 8.953125 15.027344 8.980469 14.933594 8.996094 14.910156 C 9.007812 14.882812 8.863281 14.851562 8.671875 14.835938 C 8.117188 14.789062 7.8125 14.390625 7.890625 13.816406 C 7.910156 13.679688 7.90625 13.570312 7.882812 13.570312 C 7.859375 13.574219 7.597656 13.671875 7.296875 13.796875 M 17.707031 13.609375 C 17.683594 13.632812 17.664062 13.714844 17.664062 13.785156 C 17.664062 13.890625 17.679688 13.898438 17.722656 13.832031 C 17.789062 13.722656 18.308594 14.074219 19.234375 14.847656 C 20.164062 15.632812 20.132812 15.613281 20.75 15.667969 L 21.308594 15.71875 L 21.476562 15.339844 C 21.597656 15.070312 21.628906 14.917969 21.59375 14.796875 C 21.558594 14.664062 21.542969 14.652344 21.519531 14.734375 C 21.488281 14.875 21.355469 14.878906 21.226562 14.753906 C 21.171875 14.699219 21.058594 14.65625 20.976562 14.65625 C 20.753906 14.65625 20.203125 14.464844 20.117188 14.355469 C 20.078125 14.304688 19.933594 14.253906 19.796875 14.242188 C 19.480469 14.210938 19.222656 14.113281 19.15625 13.992188 C 19.089844 13.871094 18.65625 13.785156 18.59375 13.882812 C 18.53125 13.988281 18.414062 13.964844 18.453125 13.859375 C 18.480469 13.789062 18.417969 13.746094 18.222656 13.695312 C 18.074219 13.65625 17.90625 13.613281 17.851562 13.59375 C 17.796875 13.578125 17.730469 13.585938 17.707031 13.609375 M 15.351562 14.257812 C 15.429688 14.398438 15.550781 14.398438 15.550781 14.257812 C 15.550781 14.21875 15.53125 14.207031 15.511719 14.230469 C 15.488281 14.253906 15.425781 14.234375 15.371094 14.191406 C 15.289062 14.121094 15.285156 14.128906 15.351562 14.257812 M 15.949219 14.1875 C 15.886719 14.210938 15.898438 14.246094 15.996094 14.316406 C 16.070312 14.367188 16.1875 14.515625 16.261719 14.644531 C 16.332031 14.773438 16.375 14.824219 16.351562 14.753906 C 16.324219 14.660156 16.332031 14.644531 16.382812 14.691406 C 16.5 14.808594 16.386719 14.992188 16.21875 14.957031 C 16.136719 14.941406 16.082031 14.957031 16.101562 14.984375 C 16.121094 15.015625 16.191406 15.039062 16.261719 15.039062 C 16.332031 15.039062 16.402344 15.078125 16.421875 15.125 C 16.457031 15.21875 16.769531 15.195312 16.769531 15.097656 C 16.769531 15.066406 16.828125 15.039062 16.898438 15.039062 C 17.089844 15.039062 16.996094 14.9375 16.769531 14.890625 C 16.546875 14.84375 16.53125 14.792969 16.695312 14.617188 C 16.808594 14.492188 16.808594 14.484375 16.699219 14.347656 C 16.632812 14.265625 16.570312 14.230469 16.542969 14.269531 C 16.523438 14.304688 16.460938 14.335938 16.410156 14.335938 C 16.355469 14.335938 16.328125 14.308594 16.351562 14.273438 C 16.375 14.238281 16.351562 14.226562 16.296875 14.246094 C 16.246094 14.265625 16.1875 14.25 16.164062 14.210938 C 16.117188 14.140625 16.082031 14.136719 15.949219 14.1875 M 23.949219 14.660156 C 23.960938 14.699219 24 14.730469 24.03125 14.730469 C 24.066406 14.730469 24.101562 14.699219 24.117188 14.660156 C 24.128906 14.621094 24.089844 14.59375 24.03125 14.59375 C 23.972656 14.59375 23.9375 14.621094 23.949219 14.660156 M 18.167969 14.960938 C 18.234375 15.082031 18.40625 15.246094 18.558594 15.328125 C 18.613281 15.355469 18.542969 15.257812 18.402344 15.113281 C 18.125 14.820312 18.078125 14.789062 18.167969 14.960938 M 24.027344 14.953125 C 24.050781 15.015625 24 15.039062 23.839844 15.039062 C 23.660156 15.039062 23.617188 15.066406 23.617188 15.167969 C 23.617188 15.285156 23.660156 15.296875 24.125 15.296875 L 24.632812 15.296875 L 24.625 15.105469 C 24.621094 14.988281 24.585938 14.910156 24.535156 14.910156 C 24.488281 14.910156 24.449219 14.941406 24.449219 14.976562 C 24.449219 15.011719 24.367188 15.039062 24.273438 15.035156 C 24.121094 15.03125 24.113281 15.023438 24.222656 14.980469 C 24.335938 14.9375 24.328125 14.929688 24.171875 14.898438 C 24.035156 14.871094 24 14.886719 24.027344 14.953125 M 17.140625 15.40625 C 17.113281 15.546875 17.113281 15.804688 17.140625 15.777344 C 17.15625 15.757812 17.214844 15.78125 17.269531 15.824219 C 17.339844 15.878906 17.355469 15.882812 17.324219 15.828125 C 17.296875 15.785156 17.308594 15.734375 17.34375 15.710938 C 17.429688 15.660156 17.425781 15.359375 17.339844 15.359375 C 17.300781 15.359375 17.289062 15.414062 17.3125 15.488281 C 17.34375 15.582031 17.328125 15.605469 17.257812 15.578125 C 17.203125 15.558594 17.175781 15.5 17.195312 15.449219 C 17.214844 15.402344 17.210938 15.359375 17.191406 15.359375 C 17.167969 15.359375 17.148438 15.382812 17.140625 15.40625 M 18.785156 15.523438 C 18.855469 15.578125 18.910156 15.65625 18.910156 15.699219 C 18.910156 15.738281 18.96875 15.785156 19.039062 15.796875 C 19.148438 15.816406 19.140625 15.792969 18.980469 15.621094 C 18.875 15.511719 18.761719 15.425781 18.722656 15.425781 C 18.6875 15.425781 18.714844 15.472656 18.785156 15.523438 M 18.59375 15.875 C 18.617188 15.914062 18.578125 15.960938 18.503906 15.980469 C 18.429688 16 18.363281 16.0625 18.359375 16.121094 C 18.34375 16.351562 18.332031 16.382812 18.273438 16.367188 C 18.238281 16.359375 18.214844 16.292969 18.222656 16.222656 C 18.238281 16.105469 18.234375 16.105469 18.167969 16.210938 C 17.980469 16.535156 18.464844 16.628906 18.734375 16.320312 C 18.902344 16.136719 18.925781 15.9375 18.785156 15.9375 C 18.730469 15.9375 18.6875 15.90625 18.6875 15.871094 C 18.6875 15.835938 18.65625 15.808594 18.621094 15.808594 C 18.582031 15.808594 18.570312 15.839844 18.59375 15.875 M 17.214844 15.964844 C 17.214844 15.996094 17.40625 16.25 17.640625 16.535156 C 17.875 16.820312 18.109375 17.148438 18.164062 17.265625 C 18.21875 17.378906 18.308594 17.472656 18.363281 17.472656 C 18.453125 17.472656 18.453125 17.480469 18.367188 17.535156 C 18.289062 17.589844 18.285156 17.609375 18.359375 17.65625 C 18.410156 17.6875 18.429688 17.746094 18.402344 17.785156 C 18.378906 17.824219 18.378906 17.910156 18.398438 17.976562 C 18.433594 18.09375 18.453125 18.09375 18.863281 17.945312 C 19.277344 17.792969 19.515625 17.664062 19.199219 17.761719 C 18.863281 17.863281 18.855469 17.859375 19.097656 17.730469 C 19.378906 17.585938 19.484375 17.566406 19.417969 17.671875 C 19.394531 17.710938 19.453125 17.691406 19.542969 17.632812 C 19.738281 17.503906 19.769531 17.4375 19.59375 17.53125 C 19.402344 17.632812 19.425781 17.277344 19.621094 17.132812 C 19.738281 17.046875 19.777344 17.039062 19.777344 17.105469 C 19.777344 17.152344 19.742188 17.226562 19.699219 17.265625 C 19.652344 17.3125 19.648438 17.34375 19.6875 17.34375 C 19.722656 17.34375 19.820312 17.273438 19.902344 17.183594 C 19.988281 17.097656 20.019531 17.023438 19.980469 17.023438 C 19.9375 17.023438 19.902344 16.992188 19.902344 16.953125 C 19.902344 16.914062 19.945312 16.898438 20 16.917969 C 20.058594 16.941406 20.097656 16.917969 20.097656 16.867188 C 20.097656 16.75 19.988281 16.683594 19.9375 16.765625 C 19.875 16.863281 19.777344 16.84375 19.777344 16.734375 C 19.777344 16.683594 19.824219 16.640625 19.886719 16.640625 C 19.96875 16.640625 19.976562 16.621094 19.917969 16.566406 C 19.863281 16.507812 19.867188 16.472656 19.941406 16.421875 C 20.019531 16.363281 20.003906 16.335938 19.835938 16.273438 C 19.667969 16.210938 19.648438 16.210938 19.714844 16.292969 C 19.816406 16.414062 19.738281 16.832031 19.613281 16.832031 C 19.5625 16.832031 19.519531 16.777344 19.519531 16.707031 C 19.519531 16.558594 19.40625 16.476562 19.238281 16.503906 C 19.089844 16.527344 18.894531 16.703125 19.011719 16.703125 C 19.066406 16.703125 19.0625 16.738281 18.996094 16.816406 C 18.941406 16.878906 18.878906 16.972656 18.863281 17.023438 C 18.832031 17.101562 18.824219 17.097656 18.820312 17.011719 C 18.8125 16.859375 18.625 16.9375 18.625 17.089844 C 18.625 17.222656 18.527344 17.269531 18.339844 17.230469 C 18.214844 17.207031 17.925781 16.820312 17.835938 16.554688 C 17.8125 16.492188 17.765625 16.457031 17.730469 16.476562 C 17.699219 16.496094 17.621094 16.441406 17.554688 16.351562 C 17.359375 16.078125 17.214844 15.914062 17.214844 15.964844 M 19.234375 16.003906 C 19.257812 16.042969 19.292969 16.054688 19.3125 16.035156 C 19.332031 16.015625 19.410156 16.050781 19.484375 16.113281 C 19.617188 16.222656 19.617188 16.222656 19.492188 16.078125 C 19.375 15.9375 19.152344 15.875 19.234375 16.003906 M 20.203125 16.453125 C 20.25 16.5 20.359375 16.503906 20.550781 16.460938 L 20.832031 16.398438 L 20.484375 16.390625 C 20.234375 16.386719 20.152344 16.402344 20.203125 16.453125 M 23.023438 16.492188 C 23.101562 16.507812 23.234375 16.507812 23.3125 16.492188 C 23.390625 16.476562 23.328125 16.464844 23.167969 16.464844 C 23.007812 16.464844 22.945312 16.476562 23.023438 16.492188 M 18.984375 16.875 C 18.914062 16.949219 18.941406 17.023438 19.039062 17.023438 C 19.09375 17.023438 19.136719 16.996094 19.136719 16.964844 C 19.136719 16.882812 19.035156 16.824219 18.984375 16.875 M 17.230469 18.238281 C 17.230469 18.363281 17.242188 18.414062 17.261719 18.351562 C 17.277344 18.289062 17.277344 18.191406 17.261719 18.128906 C 17.242188 18.066406 17.230469 18.117188 17.230469 18.238281 M 14.847656 20.964844 C 14.398438 21.160156 13.707031 21.320312 12.808594 21.4375 C 11.914062 21.554688 11.78125 21.601562 11.777344 21.808594 C 11.777344 21.867188 11.984375 21.882812 12.625 21.875 C 13.089844 21.867188 13.671875 21.882812 13.921875 21.90625 L 14.367188 21.953125 L 14.769531 21.410156 C 14.988281 21.109375 15.148438 20.863281 15.121094 20.867188 C 15.09375 20.867188 14.972656 20.914062 14.847656 20.964844 M 12.59375 22.703125 C 12.707031 22.714844 12.882812 22.714844 12.976562 22.703125 C 13.074219 22.6875 12.980469 22.675781 12.769531 22.675781 C 12.558594 22.675781 12.476562 22.6875 12.59375 22.703125 "/>
<path style=" stroke:none;fill-rule:evenodd;fill:rgb(98.039216%,86.274511%,55.686277%);fill-opacity:1;" d="M 20.949219 8.800781 C 20.949219 9.082031 20.960938 9.1875 20.976562 9.039062 C 20.988281 8.886719 20.988281 8.65625 20.972656 8.527344 C 20.960938 8.394531 20.949219 8.519531 20.949219 8.800781 M 12.371094 11.328125 C 12.371094 11.488281 12.382812 11.550781 12.398438 11.472656 C 12.414062 11.394531 12.414062 11.261719 12.398438 11.183594 C 12.382812 11.105469 12.371094 11.167969 12.371094 11.328125 M 13.824219 12.386719 C 13.769531 12.398438 13.621094 12.425781 13.488281 12.445312 L 13.25 12.484375 L 13.75 13.234375 C 14.023438 13.648438 14.453125 14.316406 14.699219 14.71875 C 14.945312 15.125 15.261719 15.632812 15.402344 15.851562 L 15.652344 16.25 L 16.003906 15.96875 L 15.53125 15.199219 C 15.273438 14.777344 14.796875 14.039062 14.472656 13.558594 C 14.152344 13.078125 13.886719 12.652344 13.886719 12.613281 C 13.886719 12.574219 13.945312 12.542969 14.015625 12.542969 C 14.085938 12.542969 14.144531 12.5 14.144531 12.449219 C 14.144531 12.359375 14.046875 12.339844 13.824219 12.386719 M 16.550781 13.113281 C 16.460938 13.148438 16.527344 13.179688 16.808594 13.242188 C 17.015625 13.289062 17.355469 13.394531 17.566406 13.476562 C 17.777344 13.558594 18.269531 13.703125 18.65625 13.796875 C 19.605469 14.019531 21.566406 14.652344 21.566406 14.730469 C 21.566406 14.761719 21.597656 14.773438 21.632812 14.753906 C 21.691406 14.714844 21.726562 14.464844 21.675781 14.464844 C 21.660156 14.464844 21.320312 14.351562 20.914062 14.210938 C 19.992188 13.898438 18.351562 13.4375 18.03125 13.402344 C 17.898438 13.390625 17.734375 13.351562 17.667969 13.3125 C 17.601562 13.277344 17.476562 13.246094 17.394531 13.246094 C 17.316406 13.246094 17.164062 13.203125 17.066406 13.152344 C 16.867188 13.046875 16.738281 13.039062 16.550781 13.113281 M 10.878906 13.304688 C 10.878906 13.332031 11.007812 13.40625 11.160156 13.464844 C 11.3125 13.523438 11.492188 13.628906 11.554688 13.699219 C 11.667969 13.824219 11.667969 13.824219 11.753906 13.699219 C 11.832031 13.589844 11.824219 13.554688 11.679688 13.410156 C 11.546875 13.28125 11.453125 13.246094 11.195312 13.246094 C 11.023438 13.246094 10.878906 13.273438 10.878906 13.304688 M 17.703125 13.859375 C 17.609375 14.101562 17.667969 14.398438 17.839844 14.585938 C 18.28125 15.058594 19.578125 16.15625 19.832031 16.269531 C 20.054688 16.371094 20.214844 16.390625 20.617188 16.375 C 20.894531 16.363281 21.121094 16.363281 21.121094 16.378906 C 21.121094 16.492188 20.652344 17.089844 20.3125 17.40625 C 19.882812 17.808594 19.484375 18.042969 18.886719 18.25 C 18.480469 18.390625 18.425781 18.359375 18.390625 17.976562 C 18.355469 17.570312 18.117188 17.117188 17.644531 16.539062 C 17.332031 16.15625 17.179688 16.023438 17.074219 16.027344 C 16.957031 16.03125 16.875 15.933594 16.648438 15.535156 C 16.464844 15.210938 16.328125 15.039062 16.253906 15.039062 C 16.1875 15.039062 16.054688 14.90625 15.9375 14.71875 C 15.746094 14.421875 15.550781 14.3125 15.464844 14.453125 C 15.445312 14.480469 15.722656 14.980469 16.078125 15.558594 C 17.1875 17.367188 17.386719 17.921875 17.1875 18.695312 C 17.058594 19.203125 16.800781 19.601562 16.335938 20.03125 C 16.132812 20.21875 15.902344 20.429688 15.824219 20.503906 C 15.746094 20.578125 15.449219 20.957031 15.164062 21.34375 C 14.726562 21.941406 14.667969 22.054688 14.765625 22.085938 C 14.828125 22.109375 15.082031 22.210938 15.332031 22.316406 L 15.785156 22.507812 L 16.027344 22.136719 C 16.15625 21.933594 16.484375 21.46875 16.753906 21.105469 C 17.023438 20.746094 17.332031 20.277344 17.4375 20.070312 C 17.542969 19.859375 17.703125 19.636719 17.792969 19.574219 C 17.878906 19.507812 18.21875 19.382812 18.542969 19.296875 C 18.871094 19.210938 19.25 19.082031 19.390625 19.007812 C 19.527344 18.9375 19.695312 18.878906 19.757812 18.878906 C 19.882812 18.882812 21.660156 20.371094 22 20.757812 C 22.296875 21.101562 22.273438 21.253906 21.847656 21.699219 C 21.535156 22.023438 21.503906 22.082031 21.609375 22.117188 C 21.671875 22.136719 21.839844 22.195312 21.976562 22.242188 C 22.214844 22.328125 22.230469 22.328125 22.359375 22.164062 C 22.648438 21.808594 23.550781 20.453125 23.550781 20.378906 C 23.550781 20.289062 23.410156 20.222656 23.207031 20.222656 C 23.097656 20.222656 23.0625 20.261719 23.066406 20.363281 C 23.070312 20.4375 23.039062 20.511719 23 20.523438 C 22.960938 20.539062 22.484375 20.15625 21.945312 19.671875 C 21.402344 19.191406 20.839844 18.707031 20.691406 18.597656 C 20.542969 18.488281 20.40625 18.359375 20.382812 18.304688 C 20.359375 18.246094 20.476562 18.089844 20.726562 17.859375 C 21.15625 17.453125 21.40625 17.136719 21.664062 16.65625 L 21.84375 16.320312 L 22.308594 16.320312 C 22.585938 16.320312 22.792969 16.289062 22.820312 16.25 C 22.851562 16.199219 23.164062 16.183594 23.800781 16.195312 C 25.175781 16.21875 25.214844 16.214844 25.214844 16.0625 C 25.214844 15.9375 25.171875 15.9375 23.589844 15.9375 C 22.132812 15.9375 21.960938 15.925781 21.925781 15.828125 C 21.878906 15.710938 21.984375 15.617188 22.160156 15.617188 C 22.222656 15.617188 22.273438 15.589844 22.273438 15.558594 C 22.273438 15.523438 22.289062 15.453125 22.3125 15.398438 C 22.335938 15.328125 22.3125 15.296875 22.242188 15.296875 C 22.152344 15.296875 22.144531 15.246094 22.183594 14.90625 C 22.222656 14.550781 22.214844 14.515625 22.113281 14.539062 C 22.03125 14.554688 21.960938 14.6875 21.878906 14.996094 C 21.738281 15.5 21.546875 15.90625 21.425781 15.949219 C 21.382812 15.964844 21.007812 15.957031 20.59375 15.933594 C 19.964844 15.894531 19.789062 15.863281 19.492188 15.714844 C 19.117188 15.535156 18.878906 15.292969 18.878906 15.09375 C 18.878906 14.917969 19.023438 14.949219 19.234375 15.171875 C 19.457031 15.40625 19.660156 15.519531 19.96875 15.582031 L 20.191406 15.632812 L 20 15.480469 C 19.894531 15.398438 19.546875 15.113281 19.230469 14.847656 C 18.675781 14.382812 17.84375 13.761719 17.773438 13.761719 C 17.757812 13.761719 17.722656 13.804688 17.703125 13.859375 M 17.957031 14.390625 C 17.925781 14.441406 18.050781 14.570312 18.414062 14.875 C 18.53125 14.972656 18.574219 14.980469 18.65625 14.914062 C 18.800781 14.792969 18.777344 14.75 18.441406 14.535156 C 18.121094 14.328125 18.015625 14.296875 17.957031 14.390625 M 26.257812 14.847656 C 26.257812 15.007812 26.269531 15.070312 26.285156 14.992188 C 26.300781 14.914062 26.300781 14.785156 26.285156 14.703125 C 26.269531 14.625 26.257812 14.691406 26.257812 14.847656 M 26.191406 15.457031 C 26.191406 15.597656 26.207031 15.648438 26.222656 15.566406 C 26.238281 15.488281 26.234375 15.371094 26.21875 15.3125 C 26.203125 15.25 26.191406 15.316406 26.191406 15.457031 M 13.699219 15.449219 C 13.621094 15.535156 13.480469 15.625 13.386719 15.644531 C 13.292969 15.667969 13.097656 15.746094 12.949219 15.8125 C 12.722656 15.921875 12.679688 15.972656 12.65625 16.179688 C 12.636719 16.335938 12.667969 16.5 12.75 16.664062 C 12.921875 17.007812 12.921875 17.527344 12.746094 17.820312 C 12.671875 17.945312 12.617188 18.050781 12.625 18.050781 C 12.632812 18.050781 12.992188 18.078125 13.421875 18.109375 C 14.316406 18.175781 14.675781 18.3125 14.855469 18.667969 L 14.957031 18.875 L 15.1875 18.636719 C 16.082031 17.714844 15.710938 16.121094 14.453125 15.492188 C 13.980469 15.253906 13.890625 15.25 13.699219 15.449219 M 8.765625 15.980469 C 8.65625 16.164062 8.550781 16.425781 8.53125 16.566406 C 8.496094 16.832031 8.609375 17.28125 8.710938 17.28125 C 8.746094 17.28125 8.761719 17.304688 8.742188 17.335938 C 8.722656 17.363281 8.75 17.445312 8.800781 17.511719 C 8.851562 17.582031 8.894531 17.597656 8.894531 17.550781 C 8.898438 17.429688 9.011719 17.457031 9.054688 17.59375 C 9.109375 17.773438 9.945312 18.570312 10.289062 18.769531 C 10.457031 18.867188 10.824219 19.023438 11.105469 19.117188 C 11.5625 19.269531 11.707031 19.285156 12.511719 19.285156 C 13.488281 19.28125 14.421875 19.144531 14.585938 18.976562 C 14.703125 18.859375 14.644531 18.734375 14.382812 18.539062 C 14.238281 18.429688 14.054688 18.402344 13.140625 18.359375 C 12.546875 18.328125 11.878906 18.273438 11.65625 18.238281 C 10.660156 18.074219 10.074219 17.46875 10.292969 16.835938 C 10.359375 16.640625 10.359375 16.640625 9.902344 16.371094 C 9.652344 16.21875 9.339844 15.996094 9.207031 15.871094 L 8.96875 15.644531 L 8.765625 15.980469 M 26.125 15.9375 C 26.125 16.058594 26.140625 16.109375 26.15625 16.046875 C 26.171875 15.988281 26.171875 15.886719 26.15625 15.824219 C 26.140625 15.761719 26.125 15.8125 26.125 15.9375 M 26.023438 16.453125 C 26 16.601562 25.992188 16.734375 26.007812 16.75 C 26.023438 16.765625 26.054688 16.65625 26.078125 16.511719 C 26.105469 16.367188 26.109375 16.234375 26.09375 16.21875 C 26.078125 16.199219 26.046875 16.308594 26.023438 16.453125 M 9.226562 16.324219 C 9.242188 16.363281 9.277344 16.394531 9.3125 16.394531 C 9.34375 16.394531 9.382812 16.363281 9.394531 16.324219 C 9.410156 16.285156 9.371094 16.257812 9.3125 16.257812 C 9.253906 16.257812 9.214844 16.285156 9.226562 16.324219 M 14.605469 16.324219 C 14.617188 16.363281 14.65625 16.394531 14.6875 16.394531 C 14.722656 16.394531 14.757812 16.363281 14.773438 16.324219 C 14.785156 16.285156 14.746094 16.257812 14.6875 16.257812 C 14.628906 16.257812 14.589844 16.285156 14.605469 16.324219 M 14.625 16.828125 C 14.578125 16.902344 14.699219 16.980469 14.785156 16.925781 C 14.855469 16.882812 14.808594 16.769531 14.71875 16.769531 C 14.6875 16.769531 14.648438 16.792969 14.625 16.828125 M 13.453125 16.90625 C 13.488281 17.011719 13.679688 17.125 13.734375 17.070312 C 13.796875 17.011719 13.636719 16.832031 13.523438 16.832031 C 13.472656 16.832031 13.441406 16.867188 13.453125 16.90625 M 25.859375 17.199219 C 25.703125 17.902344 25.332031 18.851562 24.828125 19.839844 C 24.261719 20.953125 23.792969 21.703125 23 22.765625 C 22.707031 23.164062 22.484375 23.488281 22.511719 23.484375 C 22.582031 23.480469 23.71875 21.890625 24.15625 21.1875 C 24.6875 20.328125 25.355469 18.964844 25.617188 18.207031 C 25.855469 17.515625 26.015625 16.90625 25.96875 16.859375 C 25.953125 16.84375 25.902344 16.996094 25.859375 17.199219 M 9.089844 16.960938 C 9.089844 16.996094 9.132812 17.023438 9.183594 17.023438 C 9.238281 17.023438 9.28125 16.996094 9.28125 16.960938 C 9.28125 16.925781 9.238281 16.894531 9.183594 16.894531 C 9.132812 16.894531 9.089844 16.925781 9.089844 16.960938 M 9.671875 17.085938 C 9.699219 17.167969 9.789062 17.183594 9.796875 17.105469 C 9.800781 17.078125 9.765625 17.046875 9.726562 17.035156 C 9.683594 17.019531 9.660156 17.042969 9.671875 17.085938 M 13.09375 17.140625 C 13.070312 17.179688 13.085938 17.226562 13.125 17.25 C 13.222656 17.3125 13.285156 17.226562 13.203125 17.144531 C 13.15625 17.097656 13.121094 17.097656 13.09375 17.140625 M 14.65625 17.535156 C 14.65625 17.570312 14.699219 17.601562 14.753906 17.601562 C 14.804688 17.601562 14.847656 17.570312 14.847656 17.535156 C 14.847656 17.5 14.804688 17.472656 14.753906 17.472656 C 14.699219 17.472656 14.65625 17.5 14.65625 17.535156 M 13.03125 17.773438 C 12.960938 17.84375 12.988281 17.921875 13.089844 17.921875 C 13.140625 17.921875 13.183594 17.894531 13.183594 17.859375 C 13.183594 17.777344 13.085938 17.722656 13.03125 17.773438 M 14.492188 17.796875 C 14.433594 17.894531 14.515625 17.957031 14.597656 17.875 C 14.644531 17.828125 14.644531 17.792969 14.601562 17.765625 C 14.566406 17.742188 14.515625 17.757812 14.492188 17.796875 M 10.304688 18.273438 C 10.304688 18.332031 10.335938 18.367188 10.371094 18.355469 C 10.410156 18.34375 10.441406 18.304688 10.441406 18.273438 C 10.441406 18.238281 10.410156 18.199219 10.371094 18.1875 C 10.335938 18.175781 10.304688 18.214844 10.304688 18.273438 M 10.6875 18.433594 C 10.6875 18.503906 10.730469 18.558594 10.785156 18.558594 C 10.890625 18.558594 10.894531 18.546875 10.839844 18.40625 C 10.785156 18.261719 10.6875 18.28125 10.6875 18.433594 M 13.761719 18.558594 C 13.761719 18.59375 13.804688 18.625 13.855469 18.625 C 13.910156 18.625 13.953125 18.59375 13.953125 18.558594 C 13.953125 18.523438 13.910156 18.496094 13.855469 18.496094 C 13.804688 18.496094 13.761719 18.523438 13.761719 18.558594 M 11.953125 22.765625 C 12.066406 22.78125 12.242188 22.78125 12.335938 22.765625 C 12.433594 22.75 12.339844 22.738281 12.128906 22.738281 C 11.917969 22.738281 11.839844 22.753906 11.953125 22.765625 M 13.296875 22.765625 C 13.375 22.78125 13.503906 22.78125 13.585938 22.765625 C 13.664062 22.75 13.597656 22.738281 13.441406 22.738281 C 13.28125 22.738281 13.214844 22.75 13.296875 22.765625 M 18.929688 22.765625 C 19.082031 22.78125 19.3125 22.78125 19.441406 22.765625 C 19.574219 22.753906 19.449219 22.742188 19.167969 22.742188 C 18.886719 22.742188 18.777344 22.753906 18.929688 22.765625 M 16.59375 23.460938 L 16.414062 23.625 L 16.625 23.480469 C 16.738281 23.402344 16.832031 23.328125 16.832031 23.316406 C 16.832031 23.265625 16.761719 23.308594 16.59375 23.460938 "/>
<path style=" stroke:none;fill-rule:evenodd;fill:rgb(23.529412%,25.490198%,23.137255%);fill-opacity:1;" d="M 15.953125 6.828125 C 16.011719 6.84375 16.113281 6.84375 16.175781 6.828125 C 16.238281 6.8125 16.1875 6.800781 16.0625 6.800781 C 15.941406 6.800781 15.890625 6.8125 15.953125 6.828125 M 14.03125 7.359375 C 14.03125 7.484375 14.042969 7.535156 14.058594 7.472656 C 14.078125 7.410156 14.078125 7.308594 14.058594 7.246094 C 14.042969 7.1875 14.03125 7.238281 14.03125 7.359375 M 17.617188 7.390625 C 17.617188 7.53125 17.628906 7.582031 17.644531 7.503906 C 17.660156 7.421875 17.660156 7.308594 17.644531 7.246094 C 17.628906 7.1875 17.617188 7.25 17.617188 7.390625 M 9.621094 10.527344 C 9.621094 10.738281 9.632812 10.816406 9.644531 10.703125 C 9.660156 10.585938 9.660156 10.414062 9.644531 10.320312 C 9.632812 10.222656 9.621094 10.316406 9.621094 10.527344 M 9.433594 11.519531 C 9.433594 12.207031 9.445312 12.488281 9.457031 12.144531 C 9.46875 11.800781 9.46875 11.238281 9.457031 10.894531 C 9.445312 10.554688 9.433594 10.832031 9.433594 11.519531 M 10.367188 10.351562 C 10.367188 10.378906 10.511719 10.398438 10.6875 10.398438 C 10.863281 10.398438 11.007812 10.378906 11.007812 10.351562 C 11.007812 10.324219 10.863281 10.304688 10.6875 10.304688 C 10.511719 10.304688 10.367188 10.324219 10.367188 10.351562 M 8.851562 10.847656 C 8.851562 11.023438 8.863281 11.089844 8.878906 10.992188 C 8.894531 10.894531 8.890625 10.75 8.878906 10.671875 C 8.863281 10.59375 8.851562 10.671875 8.851562 10.847656 M 21.144531 10.816406 C 21.152344 10.9375 21.1875 10.976562 21.3125 10.988281 C 21.445312 10.996094 21.449219 10.992188 21.332031 10.964844 C 21.25 10.949219 21.179688 10.875 21.164062 10.796875 C 21.144531 10.679688 21.140625 10.683594 21.144531 10.816406 M 8.855469 11.808594 C 8.855469 12.160156 8.867188 12.296875 8.878906 12.109375 C 8.890625 11.925781 8.890625 11.636719 8.878906 11.46875 C 8.867188 11.304688 8.855469 11.457031 8.855469 11.808594 M 21.132812 12.234375 C 21.125 12.824219 21.140625 13.316406 21.167969 13.335938 C 21.195312 13.351562 21.207031 13.027344 21.199219 12.617188 C 21.167969 11.285156 21.144531 11.144531 21.132812 12.234375 M 20.757812 11.902344 C 20.757812 12.238281 20.769531 12.375 20.78125 12.207031 C 20.796875 12.039062 20.796875 11.765625 20.78125 11.601562 C 20.769531 11.433594 20.757812 11.570312 20.757812 11.902344 M 10.320312 11.4375 C 10.453125 11.453125 10.667969 11.453125 10.800781 11.4375 C 10.933594 11.425781 10.824219 11.414062 10.558594 11.414062 C 10.296875 11.414062 10.1875 11.425781 10.320312 11.4375 M 22.109375 12.832031 C 22.109375 13.238281 22.132812 13.34375 22.207031 13.347656 C 22.261719 13.351562 22.269531 13.34375 22.226562 13.328125 C 22.175781 13.3125 22.140625 13.121094 22.125 12.8125 L 22.105469 12.320312 L 22.109375 12.832031 M 9.257812 13.035156 C 9.175781 13.121094 9.21875 13.183594 9.359375 13.179688 C 9.496094 13.175781 9.496094 13.171875 9.375 13.125 L 9.246094 13.074219 L 9.375 13.039062 C 9.460938 13.019531 9.46875 13.003906 9.402344 13 C 9.347656 12.996094 9.28125 13.011719 9.257812 13.035156 M 10.015625 13.421875 C 9.816406 13.46875 9.789062 13.523438 9.859375 13.730469 L 9.921875 13.921875 L 9.890625 13.710938 C 9.863281 13.523438 9.875 13.503906 10.019531 13.503906 C 10.105469 13.503906 10.175781 13.476562 10.175781 13.441406 C 10.175781 13.40625 10.167969 13.378906 10.160156 13.382812 C 10.152344 13.386719 10.085938 13.40625 10.015625 13.421875 M 8.960938 13.621094 C 8.960938 13.699219 8.992188 13.761719 9.027344 13.761719 C 9.066406 13.761719 9.078125 13.789062 9.054688 13.824219 C 9.035156 13.859375 9.042969 13.886719 9.078125 13.886719 C 9.109375 13.886719 9.15625 13.84375 9.175781 13.792969 C 9.195312 13.738281 9.179688 13.703125 9.136719 13.710938 C 9.09375 13.722656 9.058594 13.695312 9.058594 13.652344 C 9.054688 13.511719 8.960938 13.484375 8.960938 13.621094 M 7.890625 13.953125 C 7.890625 14.109375 7.902344 14.175781 7.917969 14.097656 C 7.933594 14.015625 7.933594 13.886719 7.917969 13.808594 C 7.902344 13.730469 7.890625 13.792969 7.890625 13.953125 M 12.816406 13.921875 C 12.816406 14.0625 12.828125 14.109375 12.84375 14.03125 C 12.859375 13.953125 12.859375 13.835938 12.84375 13.773438 C 12.828125 13.714844 12.816406 13.777344 12.816406 13.921875 M 9.1875 14.070312 C 9.167969 14.105469 9.179688 14.152344 9.214844 14.175781 C 9.316406 14.238281 9.292969 14.3125 9.136719 14.386719 C 9.03125 14.4375 9.023438 14.457031 9.097656 14.460938 C 9.230469 14.464844 9.339844 14.332031 9.320312 14.191406 C 9.300781 14.046875 9.238281 13.992188 9.1875 14.070312 M 25.359375 14.847656 C 25.359375 14.972656 25.371094 15.023438 25.386719 14.960938 C 25.402344 14.898438 25.402344 14.796875 25.386719 14.734375 C 25.371094 14.675781 25.359375 14.726562 25.359375 14.847656 M 22.421875 14.910156 C 22.429688 15.046875 22.46875 15.074219 22.65625 15.09375 C 22.777344 15.105469 22.902344 15.148438 22.933594 15.1875 C 22.96875 15.238281 22.976562 15.234375 22.960938 15.167969 C 22.945312 15.109375 22.839844 15.0625 22.703125 15.050781 C 22.527344 15.039062 22.464844 15 22.441406 14.890625 C 22.414062 14.773438 22.414062 14.777344 22.421875 14.910156 M 23.855469 15.085938 C 23.972656 15.101562 24.144531 15.101562 24.242188 15.085938 C 24.335938 15.070312 24.242188 15.058594 24.03125 15.058594 C 23.820312 15.058594 23.742188 15.070312 23.855469 15.085938 M 14.847656 15.699219 C 14.847656 15.710938 14.941406 15.804688 15.054688 15.90625 L 15.265625 16.097656 L 15.074219 15.886719 C 14.902344 15.695312 14.847656 15.652344 14.847656 15.699219 M 11.625 15.851562 C 11.664062 15.878906 11.714844 15.960938 11.730469 16.03125 C 11.761719 16.132812 11.765625 16.128906 11.753906 16.003906 C 11.75 15.917969 11.699219 15.839844 11.648438 15.824219 C 11.585938 15.808594 11.578125 15.816406 11.625 15.851562 M 20.53125 15.917969 C 20.679688 15.933594 20.910156 15.933594 21.042969 15.917969 C 21.171875 15.90625 21.050781 15.894531 20.769531 15.894531 C 20.488281 15.894531 20.378906 15.90625 20.53125 15.917969 M 22.800781 15.917969 C 23.25 15.929688 23.984375 15.929688 24.433594 15.917969 C 24.878906 15.910156 24.511719 15.898438 23.617188 15.898438 C 22.71875 15.898438 22.351562 15.910156 22.800781 15.917969 M 13.230469 18.351562 C 13.34375 18.363281 13.546875 18.363281 13.679688 18.351562 C 13.8125 18.335938 13.71875 18.324219 13.472656 18.324219 C 13.226562 18.324219 13.117188 18.335938 13.230469 18.351562 M 9.664062 18.964844 C 9.664062 18.976562 9.757812 19.070312 9.871094 19.171875 L 10.078125 19.359375 L 9.890625 19.152344 C 9.71875 18.957031 9.664062 18.914062 9.664062 18.964844 M 13.121094 19.527344 C 12.996094 19.5625 13.03125 19.574219 13.265625 19.578125 C 13.429688 19.582031 13.566406 19.574219 13.566406 19.558594 C 13.566406 19.503906 13.269531 19.484375 13.121094 19.527344 M 9.28125 20.320312 C 9.398438 20.441406 9.511719 20.542969 9.527344 20.542969 C 9.546875 20.542969 9.464844 20.441406 9.34375 20.320312 C 9.222656 20.195312 9.113281 20.097656 9.09375 20.097656 C 9.078125 20.097656 9.160156 20.195312 9.28125 20.320312 M 21.726562 21.777344 L 21.472656 22.046875 L 21.742188 21.796875 C 21.996094 21.558594 22.046875 21.503906 21.996094 21.503906 C 21.988281 21.503906 21.863281 21.625 21.726562 21.777344 M 12.785156 21.871094 C 12.863281 21.882812 12.992188 21.882812 13.070312 21.871094 C 13.152344 21.855469 13.085938 21.839844 12.929688 21.839844 C 12.769531 21.839844 12.703125 21.855469 12.785156 21.871094 M 12.113281 22.699219 C 12.171875 22.714844 12.273438 22.714844 12.335938 22.699219 C 12.398438 22.683594 12.347656 22.671875 12.222656 22.671875 C 12.101562 22.671875 12.050781 22.683594 12.113281 22.699219 M 13.199219 22.699219 C 13.261719 22.714844 13.363281 22.714844 13.425781 22.699219 C 13.484375 22.683594 13.433594 22.671875 13.3125 22.671875 C 13.1875 22.671875 13.136719 22.683594 13.199219 22.699219 "/>
</g>
</svg>
